<svg data-v-fde0c5aa="" xmlns="http://www.w3.org/2000/svg" viewBox="0 0 300 300" class="iconAbove"><!----><defs data-v-fde0c5aa=""><!----></defs><rect data-v-fde0c5aa="" fill="#29A7F1" x="0" y="0" width="300px" height="300px" class="logo-background-square"></rect><defs data-v-fde0c5aa=""><!----></defs><g data-v-fde0c5aa="" id="982e0b4d-3ed1-429c-8ddc-547e415e4fa6" fill="#ffffff" transform="matrix(4.2155375480651855,0,0,4.2155375480651855,55.41387462297221,195.96005543327627)"><path d="M9.69 11.13L9.69 11.13L9.69 11.13Q9.73 11.21 9.69 11.30L9.69 11.30L9.69 11.30Q9.60 11.49 9.49 11.61L9.49 11.61L9.49 11.61Q9.35 11.75 9.17 11.75L9.17 11.75L9.17 11.75Q8.69 11.75 8.34 11.24L8.34 11.24L8.34 11.24Q8.04 10.79 7.78 9.90L7.78 9.90L7.78 9.90Q7.32 8.26 7.32 5.95L7.32 5.95L7.32 5.95Q7.32 5.40 7.39 4.82L7.39 4.82L7.39 4.82Q7.46 4.24 7.49 3.61L7.49 3.61L7.49 3.58L7.49 3.58Q7.38 4.30 7.18 5.06L7.18 5.06L7.18 5.06Q6.99 5.82 6.79 6.78L6.79 6.78L6.79 6.78Q6.68 7.21 6.60 7.53L6.60 7.53L6.60 7.53Q6.52 7.84 6.44 8.12L6.44 8.12L6.44 8.12Q6.36 8.40 6.24 8.69L6.24 8.69L6.24 8.69Q6.12 8.99 5.92 9.37L5.92 9.37L5.92 9.37Q5.81 9.60 5.68 9.77L5.68 9.77L5.68 9.77Q5.54 9.94 5.42 10.05L5.42 10.05L5.42 10.05Q5.12 10.32 4.86 10.32L4.86 10.32L4.86 10.32Q4.52 10.32 4.21 10.05L4.21 10.05L4.21 10.05Q3.95 9.83 3.71 9.35L3.71 9.35L3.71 9.35Q3.49 8.90 3.36 8.27L3.36 8.27L3.36 8.27Q3.23 7.64 3.14 6.72L3.14 6.72L3.14 6.71L3.14 6.71Q2.94 5.15 2.72 3.51L2.72 3.51L2.72 3.51Q2.70 3.53 2.70 3.54L2.70 3.54L2.70 3.54Q2.70 3.56 2.69 3.57L2.69 3.57L2.69 3.57Q2.69 3.58 2.69 3.60L2.69 3.60L2.69 3.60Q2.58 3.89 2.44 4.30L2.44 4.30L2.44 4.30Q2.31 4.70 2.16 5.24L2.16 5.24L2.16 5.24Q2.00 5.67 1.87 6.07L1.87 6.07L1.87 6.07Q1.74 6.47 1.61 6.83L1.61 6.83L1.61 6.83Q1.51 7.11 1.44 7.37L1.44 7.37L1.44 7.37Q1.36 7.63 1.29 7.88L1.29 7.88L1.29 7.88Q1.20 8.23 1.11 8.54L1.11 8.54L1.11 8.54Q1.02 8.85 1.06 9.17L1.06 9.17L1.06 9.17Q1.11 9.48 1.19 9.68L1.19 9.68L1.19 9.68Q1.27 9.88 1.37 10.05L1.37 10.05L1.37 10.05Q1.43 10.16 1.46 10.29L1.46 10.29L1.46 10.29Q1.48 10.42 1.45 10.50L1.45 10.50L1.45 10.50Q1.41 10.58 1.29 10.61L1.29 10.61L1.29 10.61Q1.16 10.63 0.91 10.50L0.91 10.50L0.91 10.50Q0.77 10.43 0.66 10.30L0.66 10.30L0.66 10.30Q0.55 10.18 0.46 10.03L0.46 10.03L0.46 10.03Q0.38 9.88 0.33 9.74L0.33 9.74L0.33 9.74Q0.28 9.60 0.25 9.49L0.25 9.49L0.25 9.49Q0.14 9.09 0.21 8.60L0.21 8.60L0.21 8.60Q0.28 8.12 0.43 7.56L0.43 7.56L0.43 7.56Q0.46 7.45 0.55 7.21L0.55 7.21L0.55 7.21Q0.63 6.97 0.71 6.71L0.71 6.71L0.71 6.71Q0.80 6.45 0.88 6.24L0.88 6.24L0.88 6.24Q0.97 6.02 0.99 5.94L0.99 5.94L0.99 5.94Q1.13 5.57 1.26 5.19L1.26 5.19L1.26 5.19Q1.39 4.80 1.50 4.40L1.50 4.40L1.50 4.40Q1.89 3.09 2.08 2.03L2.08 2.03L2.08 2.03Q2.27 0.97 2.27 0.14L2.27 0.14L2.27 0.14Q2.27-0.28 2.42-0.52L2.42-0.52L2.42-0.52Q2.62-0.78 2.95-0.78L2.95-0.78L2.95-0.78Q3.36-0.78 4.06-0.25L4.06-0.25L4.06-0.25Q4.17-0.18 4.12-0.03L4.12-0.03L4.12-0.03Q4.09 0.04 4.06 0.18L4.06 0.18L4.06 0.18Q4.03 0.32 4.01 0.58L4.01 0.58L4.01 0.58Q3.99 0.84 3.98 1.23L3.98 1.23L3.98 1.23Q3.96 1.62 3.96 2.18L3.96 2.18L3.96 2.18Q3.96 3.46 4.05 4.60L4.05 4.60L4.05 4.60Q4.13 5.74 4.27 6.75L4.27 6.75L4.27 6.75Q4.35 7.35 4.41 7.77L4.41 7.77L4.41 7.77Q4.47 8.19 4.58 8.58L4.58 8.58L4.58 8.58Q4.63 8.76 4.76 8.93L4.76 8.93L4.76 8.93Q4.89 9.09 5.00 9.10L5.00 9.10L5.00 9.10Q5.00 9.10 5.03 9.07L5.03 9.07L5.03 9.07Q5.07 9.04 5.13 8.97L5.13 8.97L5.13 8.97Q5.19 8.89 5.29 8.74L5.29 8.74L5.29 8.74Q5.38 8.60 5.49 8.36L5.49 8.36L5.49 8.36Q5.67 7.97 5.80 7.42L5.80 7.42L5.80 7.42Q5.94 6.87 6.13 6.10L6.13 6.10L6.13 6.10Q6.48 4.70 6.69 3.54L6.69 3.54L6.69 3.54Q6.90 2.38 7.10 1.40L7.10 1.40L7.10 1.40Q7.11 1.20 7.12 1.07L7.12 1.07L7.12 1.07Q7.13 0.94 7.13 0.83L7.13 0.83L7.13 0.83Q7.13 0.73 7.13 0.63L7.13 0.63L7.13 0.63Q7.13 0.53 7.13 0.39L7.13 0.39L7.13 0.39Q7.13 0.22 7.15 0.10L7.15 0.10L7.15 0.10Q7.17-0.03 7.20-0.14L7.20-0.14L7.20-0.14Q7.22-0.22 7.31-0.36L7.31-0.36L7.31-0.36Q7.39-0.49 7.53-0.49L7.53-0.49L7.53-0.49Q7.97-0.49 8.25-0.43L8.25-0.43L8.25-0.43Q8.44-0.41 8.58-0.37L8.58-0.37L8.58-0.37Q8.71-0.34 8.82-0.28L8.82-0.28L8.82-0.28Q8.99-0.20 9.05-0.08L9.05-0.08L9.05-0.08Q9.11 0.03 9.13 0.10L9.13 0.10L9.13 0.10Q9.13 0.18 9.11 0.21L9.11 0.21L9.11 0.21Q9.09 0.25 9.04 0.43L9.04 0.43L9.04 0.43Q9.00 0.60 8.93 1.04L8.93 1.04L8.93 1.04Q8.88 1.39 8.82 1.86L8.82 1.86L8.82 1.86Q8.76 2.32 8.69 2.91L8.69 2.91L8.69 2.91Q8.44 5.29 8.44 6.72L8.44 6.72L8.44 6.72Q8.44 8.93 8.74 9.94L8.74 9.94L8.74 9.94Q9.02 10.86 9.56 11.02L9.56 11.02L9.56 11.02Q9.66 11.05 9.69 11.13ZM12.73 5.49L12.73 5.49L12.73 5.49Q12.91 5.49 12.89 5.59L12.89 5.59L12.89 5.59Q12.88 5.70 12.88 5.87L12.88 5.87L12.88 5.87Q12.88 5.89 12.87 5.96L12.87 5.96L12.87 5.96Q12.87 6.02 12.84 6.13L12.84 6.13L12.84 6.13Q12.81 6.24 12.77 6.44L12.77 6.44L12.77 6.44Q12.73 6.64 12.64 6.93L12.64 6.93L12.64 6.93Q12.38 8.01 12.07 8.83L12.07 8.83L12.07 8.83Q11.91 9.24 11.77 9.53L11.77 9.53L11.77 9.53Q11.62 9.81 11.48 10.01L11.48 10.01L11.48 10.01Q11.10 10.54 10.53 10.54L10.53 10.54L10.53 10.54Q9.88 10.54 9.42 9.87L9.42 9.87L9.42 9.87Q9.00 9.24 9.00 8.34L9.00 8.34L9.00 8.34Q9.00 7.62 9.11 6.87L9.11 6.87L9.11 6.87Q9.21 6.13 9.38 5.54L9.38 5.54L9.38 5.54Q9.44 5.33 9.51 5.11L9.51 5.11L9.51 5.11Q9.59 4.89 9.70 4.70L9.70 4.70L9.70 4.70Q9.81 4.51 9.95 4.39L9.95 4.39L9.95 4.39Q10.09 4.27 10.29 4.27L10.29 4.27L10.29 4.27Q10.68 4.27 11.02 4.56L11.02 4.56L11.02 4.56Q11.17 4.72 11.27 4.94L11.27 4.94L11.27 4.94Q11.37 5.17 11.37 5.33L11.37 5.33L11.37 5.33Q11.37 5.61 11.31 5.95L11.31 5.95L11.31 5.95Q11.26 6.29 11.17 6.62L11.17 6.62L11.17 6.62Q11.09 6.94 10.98 7.22L10.98 7.22L10.98 7.22Q10.88 7.49 10.77 7.66L10.77 7.66L10.77 7.66Q10.70 7.78 10.57 7.91L10.57 7.91L10.57 7.91Q10.44 8.04 10.31 8.11L10.31 8.11L10.31 8.11Q10.18 8.19 10.06 8.20L10.06 8.20L10.06 8.20Q9.94 8.20 9.86 8.09L9.86 8.09L9.86 8.09Q9.83 8.20 9.84 8.39L9.84 8.39L9.84 8.39Q9.86 8.57 9.88 8.74L9.88 8.74L9.88 8.74Q9.91 8.92 9.95 9.07L9.95 9.07L9.95 9.07Q10.00 9.23 10.02 9.30L10.02 9.30L10.02 9.30Q10.14 9.53 10.32 9.65L10.32 9.65L10.32 9.65Q10.50 9.77 10.57 9.77L10.57 9.77L10.57 9.77Q10.71 9.77 10.84 9.56L10.84 9.56L10.84 9.56Q10.98 9.35 11.19 9.03L11.19 9.03L11.19 9.03Q11.42 8.65 11.72 7.97L11.72 7.97L11.72 7.97Q12.01 7.28 12.25 6.50L12.25 6.50L12.25 6.50Q12.29 6.34 12.33 6.20L12.33 6.20L12.33 6.20Q12.36 6.05 12.40 5.89L12.40 5.89L12.40 5.89Q12.47 5.49 12.73 5.49ZM10.53 5.19L10.53 5.19L10.53 5.19Q10.42 5.50 10.33 5.75L10.33 5.75L10.33 5.75Q10.23 5.99 10.15 6.22L10.15 6.22L10.15 6.22Q10.07 6.45 10.01 6.69L10.01 6.69L10.01 6.69Q9.95 6.93 9.94 7.22L9.94 7.22L9.94 7.22Q10.12 7.21 10.26 6.97L10.26 6.97L10.26 6.97Q10.39 6.73 10.43 6.54L10.43 6.54L10.43 6.54Q10.49 6.26 10.55 5.97L10.55 5.97L10.55 5.97Q10.61 5.68 10.61 5.38L10.61 5.38L10.61 5.38Q10.61 5.31 10.59 5.20L10.59 5.20L10.59 5.20Q10.57 5.10 10.53 5.19ZM16.63 5.49L16.63 5.49L16.63 5.49Q16.70 5.50 16.70 5.56L16.70 5.56L16.70 5.56Q16.69 5.63 16.69 5.92L16.69 5.92L16.69 5.92Q16.69 6.20 16.58 6.78L16.58 6.78L16.58 6.78Q16.46 7.35 16.18 8.25L16.18 8.25L16.18 8.25Q16.03 8.74 15.85 9.11L15.85 9.11L15.85 9.11Q15.67 9.49 15.53 9.74L15.53 9.74L15.53 9.74Q15.41 9.94 15.25 10.14L15.25 10.14L15.25 10.14Q15.09 10.33 14.85 10.33L14.85 10.33L14.85 10.33Q14.41 10.33 14.15 9.97L14.15 9.97L14.15 9.97Q14.11 9.90 14.06 9.82L14.06 9.82L14.06 9.82Q14.01 9.74 13.96 9.63L13.96 9.63L13.96 9.63Q13.59 10.64 12.94 10.64L12.94 10.64L12.94 10.64Q12.61 10.64 12.35 10.40L12.35 10.40L12.35 10.40Q11.84 9.88 11.89 8.23L11.89 8.23L11.89 8.23Q11.90 7.97 11.96 7.61L11.96 7.61L11.96 7.61Q12.01 7.25 12.10 6.85L12.10 6.85L12.10 6.85Q12.15 6.62 12.23 6.36L12.23 6.36L12.23 6.36Q12.31 6.09 12.40 5.82L12.40 5.82L12.40 5.82Q12.49 5.56 12.57 5.33L12.57 5.33L12.57 5.33Q12.66 5.11 12.73 4.97L12.73 4.97L12.73 4.97Q12.82 4.79 12.97 4.60L12.97 4.60L12.97 4.60Q13.12 4.41 13.33 4.41L13.33 4.41L13.33 4.41Q13.48 4.41 13.66 4.49L13.66 4.49L13.66 4.49Q13.85 4.56 14.01 4.70L14.01 4.70L14.01 4.70Q14.17 4.83 14.29 5.01L14.29 5.01L14.29 5.01Q14.41 5.19 14.43 5.39L14.43 5.39L14.43 5.39Q14.50 5.84 14.45 6.02L14.45 6.02L14.45 6.02Q14.39 6.20 14.34 6.29L14.34 6.29L14.34 6.29Q14.31 6.31 14.26 6.36L14.26 6.36L14.26 6.36Q14.21 6.40 14.15 6.42L14.15 6.42L14.15 6.42Q14.08 6.44 14.04 6.42L14.04 6.42L14.04 6.42Q13.99 6.40 13.97 6.30L13.97 6.30L13.97 6.30Q13.93 5.96 13.83 5.72L13.83 5.72L13.83 5.72Q13.73 5.47 13.55 5.45L13.55 5.45L13.55 5.45Q13.51 5.52 13.41 5.78L13.41 5.78L13.41 5.78Q13.31 6.05 13.13 6.69L13.13 6.69L13.13 6.69Q12.95 7.34 12.84 7.90L12.84 7.90L12.84 7.90Q12.75 8.57 12.75 9.28L12.75 9.28L12.75 9.28Q12.75 9.51 12.85 9.70L12.85 9.70L12.85 9.70Q12.88 9.76 12.95 9.79L12.95 9.79L12.95 9.79Q13.02 9.83 13.05 9.83L13.05 9.83L13.05 9.83Q13.10 9.83 13.23 9.59L13.23 9.59L13.23 9.59Q13.36 9.35 13.51 8.90L13.51 8.90L13.51 8.90Q13.66 8.50 13.71 8.15L13.71 8.15L13.71 8.15Q13.75 7.80 13.82 7.43L13.82 7.43L13.82 7.43Q13.85 7.32 13.86 7.22L13.86 7.22L13.86 7.22Q13.87 7.13 13.89 7.01L13.89 7.01L13.89 7.01Q13.90 6.90 13.88 6.86L13.88 6.86L13.88 6.86Q13.86 6.82 13.90 6.76L13.90 6.76L13.90 6.76Q13.94 6.71 13.99 6.71L13.99 6.71L13.99 6.71Q14.04 6.71 14.07 6.71L14.07 6.71L14.07 6.71Q14.10 6.71 14.14 6.71L14.14 6.71L14.14 6.71Q14.18 6.72 14.21 6.72L14.21 6.72L14.21 6.72Q14.27 6.72 14.31 6.75L14.31 6.75L14.31 6.75Q14.35 6.79 14.41 6.80L14.41 6.80L14.41 6.80Q14.46 6.82 14.50 6.84L14.50 6.84L14.50 6.84Q14.53 6.86 14.57 6.89L14.57 6.89L14.57 6.89Q14.63 6.90 14.69 6.93L14.69 6.93L14.69 6.93Q14.73 6.96 14.76 7L14.76 7L14.76 7Q14.80 7.04 14.77 7.10L14.77 7.10L14.77 7.10Q14.73 7.22 14.69 7.36L14.69 7.36L14.69 7.36Q14.66 7.50 14.63 7.64L14.63 7.64L14.63 7.64Q14.60 7.84 14.58 8.06L14.58 8.06L14.58 8.06Q14.56 8.29 14.53 8.50L14.53 8.50L14.53 8.50Q14.50 8.88 14.62 9.25L14.62 9.25L14.62 9.25Q14.67 9.41 14.71 9.46L14.71 9.46L14.71 9.46Q14.74 9.51 14.76 9.52L14.76 9.52L14.76 9.52Q14.77 9.52 14.80 9.48L14.80 9.48L14.80 9.48Q14.83 9.45 14.88 9.36L14.88 9.36L14.88 9.36Q14.94 9.27 15.03 9.09L15.03 9.09L15.03 9.09Q15.12 8.92 15.26 8.64L15.26 8.64L15.26 8.64Q15.54 8.06 15.67 7.59L15.67 7.59L15.67 7.59Q15.81 7.13 15.89 6.87L15.89 6.87L16.24 5.89L16.24 5.89Q16.27 5.78 16.34 5.62L16.34 5.62L16.34 5.62Q16.42 5.46 16.63 5.49ZM19.46 5.45L19.46 5.45L19.46 5.45Q19.47 5.45 19.53 5.45L19.53 5.45L19.53 5.45Q19.59 5.46 19.65 5.50L19.65 5.50L19.65 5.50Q19.71 5.54 19.75 5.63L19.75 5.63L19.75 5.63Q19.80 5.71 19.80 5.87L19.80 5.87L19.80 5.87Q19.80 6.19 19.64 6.78L19.64 6.78L19.64 6.78Q19.49 7.36 19.18 8.26L19.18 8.26L19.18 8.26Q18.80 9.41 18.42 9.95L18.42 9.95L18.42 9.95Q18.03 10.49 17.61 10.49L17.61 10.49L17.61 10.49Q16.95 10.49 16.45 9.74L16.45 9.74L16.45 9.74Q15.89 8.89 15.89 7.39L15.89 7.39L15.89 7.39Q15.89 6.72 15.97 5.84L15.97 5.84L15.97 5.84Q16.04 4.97 16.20 3.88L16.20 3.88L16.20 3.88Q16.52 1.78 16.83 0.84L16.83 0.84L16.83 0.84Q16.87 0.29 17.01 0.03L17.01 0.03L17.01 0.03Q17.12-0.21 17.28-0.28L17.28-0.28L17.28-0.28Q17.43-0.35 17.54-0.35L17.54-0.35L17.54-0.35Q17.74-0.35 17.95-0.28L17.95-0.28L17.95-0.28Q18.16-0.21 18.33-0.02L18.33-0.02L18.33-0.02Q18.51 0.17 18.62 0.50L18.62 0.50L18.62 0.50Q18.73 0.83 18.73 1.36L18.73 1.36L18.73 1.36Q18.73 2.67 18.23 4.35L18.23 4.35L18.23 4.35Q17.72 6.06 17.05 7.08L17.05 7.08L17.05 7.08Q17.02 7.13 17.00 7.17L17.00 7.17L17.00 7.17Q16.97 7.22 16.90 7.29L16.90 7.29L16.90 7.29Q16.80 7.42 16.77 7.49L16.77 7.49L16.77 7.49Q16.74 7.55 16.74 7.62L16.74 7.62L16.74 7.62Q16.74 8.62 17.19 9.20L17.19 9.20L17.19 9.20Q17.37 9.44 17.48 9.50L17.48 9.50L17.48 9.50Q17.58 9.56 17.64 9.56L17.64 9.56L17.64 9.56Q17.70 9.55 17.75 9.48L17.75 9.48L17.75 9.48Q17.81 9.41 17.89 9.29L17.89 9.29L17.89 9.29Q17.98 9.17 18.09 8.93L18.09 8.93L18.09 8.93Q18.44 8.19 18.86 6.76L18.86 6.76L18.86 6.76Q18.91 6.54 18.96 6.33L18.96 6.33L18.96 6.33Q19.01 6.12 19.07 5.91L19.07 5.91L19.07 5.91Q19.10 5.80 19.18 5.62L19.18 5.62L19.18 5.62Q19.26 5.45 19.46 5.45ZM17.82 1.06L17.82 1.06L17.82 1.06Q17.40 2.49 17.14 3.65L17.14 3.65L17.14 3.65Q16.88 4.80 16.80 5.71L16.80 5.71L16.80 5.71Q16.95 5.36 17.11 4.95L17.11 4.95L17.11 4.95Q17.26 4.54 17.42 4.05L17.42 4.05L17.42 4.05Q17.86 2.51 17.86 1.78L17.86 1.78L17.86 1.78Q17.86 1.32 17.82 1.06ZM21.77 4.86L21.77 4.87L21.77 4.87Q22.09 5.25 22.09 6.16L22.09 6.16L22.09 6.16Q22.09 8.12 21.62 9.32L21.62 9.32L21.62 9.32Q21.10 10.63 20.24 10.63L20.24 10.63L20.24 10.63Q19.85 10.63 19.57 10.22L19.57 10.22L19.57 10.22Q19.56 10.19 19.55 10.19L19.55 10.19L19.55 10.19Q19.54 10.18 19.53 10.15L19.53 10.15L19.53 10.15Q19.32 11.49 19.32 13.17L19.32 13.17L19.32 13.17Q19.32 13.50 19.34 13.77L19.34 13.77L19.34 13.77Q19.36 14.04 19.39 14.25L19.39 14.25L19.39 14.25Q19.43 14.50 19.50 14.70L19.50 14.70L19.50 14.70Q19.56 14.80 19.56 14.83L19.56 14.83L19.56 14.83Q19.59 14.85 19.59 14.94L19.59 14.94L19.59 14.94Q19.59 15.01 19.54 15.08L19.54 15.08L19.54 15.08Q19.50 15.15 19.39 15.18L19.39 15.18L19.39 15.18Q19.35 15.19 19.18 15.19L19.18 15.19L19.18 15.19Q19.04 15.19 18.87 15.08L18.87 15.08L18.87 15.08Q18.70 14.97 18.59 14.60L18.59 14.60L18.59 14.60Q18.52 14.36 18.49 14.02L18.49 14.02L18.49 14.02Q18.45 13.68 18.45 13.20L18.45 13.20L18.45 13.20Q18.45 12.53 18.54 11.47L18.54 11.47L18.54 11.47Q18.63 10.42 18.80 8.97L18.80 8.97L18.80 8.97Q18.97 7.66 19.05 6.69L19.05 6.69L19.05 6.69Q19.14 5.73 19.12 5.11L19.12 5.11L19.12 5.11Q19.04 5.01 19.04 4.89L19.04 4.89L19.04 4.89Q19.04 4.73 19.14 4.61L19.14 4.61L19.14 4.61Q19.25 4.49 19.49 4.49L19.49 4.49L19.49 4.49Q19.54 4.49 19.63 4.51L19.63 4.51L19.63 4.51Q19.71 4.54 19.79 4.60L19.79 4.60L19.79 4.60Q19.87 4.66 19.92 4.78L19.92 4.78L19.92 4.78Q19.98 4.90 19.98 5.11L19.98 5.11L19.98 5.11Q19.98 5.18 19.98 5.26L19.98 5.26L19.98 5.26Q19.98 5.33 19.95 5.45L19.95 5.45L19.95 5.45Q19.94 5.52 19.93 5.54L19.93 5.54L19.93 5.54Q19.92 5.57 19.92 5.60L19.92 5.60L19.92 5.60Q19.99 5.46 20.04 5.33L20.04 5.33L20.04 5.33Q20.09 5.21 20.16 5.10L20.16 5.10L20.16 5.10Q20.36 4.77 20.48 4.63L20.48 4.63L20.48 4.63Q20.61 4.49 20.75 4.49L20.75 4.49L20.75 4.49Q21.43 4.49 21.77 4.86L21.77 4.86ZM21.24 7.11L21.24 6.19L21.24 6.19Q21.24 6.08 21.23 5.92L21.23 5.92L21.23 5.92Q21.22 5.75 21.19 5.60L21.19 5.60L21.19 5.60Q21.15 5.45 21.10 5.33L21.10 5.33L21.10 5.33Q21.04 5.22 20.94 5.22L20.94 5.22L20.94 5.22Q20.93 5.22 20.89 5.26L20.89 5.26L20.89 5.26Q20.85 5.31 20.78 5.46L20.78 5.46L20.78 5.47L20.78 5.47Q20.76 5.49 20.71 5.65L20.71 5.65L20.71 5.65Q20.65 5.81 20.45 6.31L20.45 6.31L20.45 6.31Q20.05 7.35 19.91 7.90L19.91 7.90L19.91 7.90Q19.77 8.44 19.75 8.67L19.75 8.67L19.75 8.67Q19.88 8.74 19.97 8.83L19.97 8.83L19.97 8.83Q20.06 8.92 20.06 9.04L20.06 9.04L20.06 9.04Q20.06 9.14 20.01 9.21L20.01 9.21L20.01 9.21Q19.96 9.27 19.94 9.30L19.94 9.30L19.94 9.30Q19.92 9.30 19.92 9.31L19.92 9.31L19.92 9.31Q19.92 9.39 19.95 9.47L19.95 9.47L19.95 9.47Q19.98 9.55 20.02 9.63L20.02 9.63L20.02 9.65L20.02 9.65Q20.09 9.79 20.15 9.81L20.15 9.81L20.15 9.81Q20.22 9.84 20.29 9.84L20.29 9.84L20.29 9.84Q20.36 9.84 20.52 9.70L20.52 9.70L20.52 9.70Q20.68 9.56 20.90 8.97L20.90 8.97L20.90 8.97Q21.06 8.51 21.15 8.05L21.15 8.05L21.15 8.05Q21.24 7.59 21.24 7.11L21.24 7.11ZM26.11 5.45L26.11 5.45L26.11 5.45Q26.12 5.45 26.18 5.45L26.18 5.45L26.18 5.45Q26.24 5.46 26.30 5.50L26.30 5.50L26.30 5.50Q26.36 5.54 26.40 5.63L26.40 5.63L26.40 5.63Q26.45 5.71 26.45 5.87L26.45 5.87L26.45 5.87Q26.45 6.19 26.29 6.78L26.29 6.78L26.29 6.78Q26.14 7.36 25.83 8.26L25.83 8.26L25.83 8.26Q25.45 9.41 25.07 9.95L25.07 9.95L25.07 9.95Q24.68 10.49 24.26 10.49L24.26 10.49L24.26 10.49Q23.60 10.49 23.10 9.74L23.10 9.74L23.10 9.74Q22.54 8.89 22.54 7.39L22.54 7.39L22.54 7.39Q22.54 6.72 22.62 5.84L22.62 5.84L22.62 5.84Q22.69 4.97 22.85 3.88L22.85 3.88L22.85 3.88Q23.17 1.78 23.48 0.84L23.48 0.84L23.48 0.84Q23.52 0.29 23.66 0.03L23.66 0.03L23.66 0.03Q23.77-0.21 23.93-0.28L23.93-0.28L23.93-0.28Q24.08-0.35 24.19-0.35L24.19-0.35L24.19-0.35Q24.39-0.35 24.60-0.28L24.60-0.28L24.60-0.28Q24.81-0.21 24.98-0.02L24.98-0.02L24.98-0.02Q25.16 0.17 25.27 0.50L25.27 0.50L25.27 0.50Q25.38 0.83 25.38 1.36L25.38 1.36L25.38 1.36Q25.38 2.67 24.88 4.35L24.88 4.35L24.88 4.35Q24.37 6.06 23.70 7.08L23.70 7.08L23.70 7.08Q23.67 7.13 23.65 7.17L23.65 7.17L23.65 7.17Q23.62 7.22 23.55 7.29L23.55 7.29L23.55 7.29Q23.45 7.42 23.42 7.49L23.42 7.49L23.42 7.49Q23.39 7.55 23.39 7.62L23.39 7.62L23.39 7.62Q23.39 8.62 23.84 9.20L23.84 9.20L23.84 9.20Q24.02 9.44 24.13 9.50L24.13 9.50L24.13 9.50Q24.23 9.56 24.29 9.56L24.29 9.56L24.29 9.56Q24.35 9.55 24.40 9.48L24.40 9.48L24.40 9.48Q24.46 9.41 24.54 9.29L24.54 9.29L24.54 9.29Q24.63 9.17 24.74 8.93L24.74 8.93L24.74 8.93Q25.09 8.19 25.51 6.76L25.51 6.76L25.51 6.76Q25.56 6.54 25.61 6.33L25.61 6.33L25.61 6.33Q25.66 6.12 25.72 5.91L25.72 5.91L25.72 5.91Q25.75 5.80 25.83 5.62L25.83 5.62L25.83 5.62Q25.91 5.45 26.11 5.45ZM24.47 1.06L24.47 1.06L24.47 1.06Q24.05 2.49 23.79 3.65L23.79 3.65L23.79 3.65Q23.53 4.80 23.45 5.71L23.45 5.71L23.45 5.71Q23.60 5.36 23.76 4.95L23.76 4.95L23.76 4.95Q23.91 4.54 24.07 4.05L24.07 4.05L24.07 4.05Q24.51 2.51 24.51 1.78L24.51 1.78L24.51 1.78Q24.51 1.32 24.47 1.06ZM29.96 5.49L29.96 5.49L29.96 5.49Q30.03 5.50 30.02 5.56L30.02 5.56L30.02 5.56Q30.02 5.63 30.02 5.92L30.02 5.92L30.02 5.92Q30.02 6.20 29.90 6.78L29.90 6.78L29.90 6.78Q29.79 7.35 29.51 8.25L29.51 8.25L29.51 8.25Q29.36 8.74 29.18 9.11L29.18 9.11L29.18 9.11Q28.99 9.49 28.85 9.74L28.85 9.74L28.85 9.74Q28.74 9.94 28.58 10.14L28.58 10.14L28.58 10.14Q28.42 10.33 28.18 10.33L28.18 10.33L28.18 10.33Q27.73 10.33 27.48 9.97L27.48 9.97L27.48 9.97Q27.44 9.90 27.39 9.82L27.39 9.82L27.39 9.82Q27.34 9.74 27.29 9.63L27.29 9.63L27.29 9.63Q26.92 10.64 26.26 10.64L26.26 10.64L26.26 10.64Q25.94 10.64 25.68 10.40L25.68 10.40L25.68 10.40Q25.17 9.88 25.21 8.23L25.21 8.23L25.21 8.23Q25.23 7.97 25.28 7.61L25.28 7.61L25.28 7.61Q25.34 7.25 25.42 6.85L25.42 6.85L25.42 6.85Q25.48 6.62 25.56 6.36L25.56 6.36L25.56 6.36Q25.63 6.09 25.73 5.82L25.73 5.82L25.73 5.82Q25.82 5.56 25.90 5.33L25.90 5.33L25.90 5.33Q25.98 5.11 26.05 4.97L26.05 4.97L26.05 4.97Q26.15 4.79 26.30 4.60L26.30 4.60L26.30 4.60Q26.45 4.41 26.66 4.41L26.66 4.41L26.66 4.41Q26.81 4.41 26.99 4.49L26.99 4.49L26.99 4.49Q27.17 4.56 27.34 4.70L27.34 4.70L27.34 4.70Q27.50 4.83 27.62 5.01L27.62 5.01L27.62 5.01Q27.73 5.19 27.76 5.39L27.76 5.39L27.76 5.39Q27.83 5.84 27.78 6.02L27.78 6.02L27.78 6.02Q27.72 6.20 27.66 6.29L27.66 6.29L27.66 6.29Q27.64 6.31 27.59 6.36L27.59 6.36L27.59 6.36Q27.54 6.40 27.48 6.42L27.48 6.42L27.48 6.42Q27.41 6.44 27.36 6.42L27.36 6.42L27.36 6.42Q27.31 6.40 27.30 6.30L27.30 6.30L27.30 6.30Q27.26 5.96 27.16 5.72L27.16 5.72L27.16 5.72Q27.06 5.47 26.88 5.45L26.88 5.45L26.88 5.45Q26.84 5.52 26.74 5.78L26.74 5.78L26.74 5.78Q26.64 6.05 26.46 6.69L26.46 6.69L26.46 6.69Q26.28 7.34 26.17 7.90L26.17 7.90L26.17 7.90Q26.08 8.57 26.08 9.28L26.08 9.28L26.08 9.28Q26.08 9.51 26.18 9.70L26.18 9.70L26.18 9.70Q26.21 9.76 26.28 9.79L26.28 9.79L26.28 9.79Q26.35 9.83 26.38 9.83L26.38 9.83L26.38 9.83Q26.43 9.83 26.56 9.59L26.56 9.59L26.56 9.59Q26.68 9.35 26.84 8.90L26.84 8.90L26.84 8.90Q26.99 8.50 27.03 8.15L27.03 8.15L27.03 8.15Q27.08 7.80 27.15 7.43L27.15 7.43L27.15 7.43Q27.17 7.32 27.19 7.22L27.19 7.22L27.19 7.22Q27.20 7.13 27.22 7.01L27.22 7.01L27.22 7.01Q27.23 6.90 27.21 6.86L27.21 6.86L27.21 6.86Q27.19 6.82 27.23 6.76L27.23 6.76L27.23 6.76Q27.27 6.71 27.32 6.71L27.32 6.71L27.32 6.71Q27.37 6.71 27.40 6.71L27.40 6.71L27.40 6.71Q27.43 6.71 27.47 6.71L27.47 6.71L27.47 6.71Q27.51 6.72 27.54 6.72L27.54 6.72L27.54 6.72Q27.59 6.72 27.64 6.75L27.64 6.75L27.64 6.75Q27.68 6.79 27.73 6.80L27.73 6.80L27.73 6.80Q27.79 6.82 27.83 6.84L27.83 6.84L27.83 6.84Q27.86 6.86 27.90 6.89L27.90 6.89L27.90 6.89Q27.96 6.90 28.01 6.93L28.01 6.93L28.01 6.93Q28.06 6.96 28.09 7L28.09 7L28.09 7Q28.13 7.04 28.10 7.10L28.10 7.10L28.10 7.10Q28.06 7.22 28.02 7.36L28.02 7.36L28.02 7.36Q27.99 7.50 27.96 7.64L27.96 7.64L27.96 7.64Q27.93 7.84 27.91 8.06L27.91 8.06L27.91 8.06Q27.89 8.29 27.86 8.50L27.86 8.50L27.86 8.50Q27.83 8.88 27.94 9.25L27.94 9.25L27.94 9.25Q28.00 9.41 28.04 9.46L28.04 9.46L28.04 9.46Q28.07 9.51 28.08 9.52L28.08 9.52L28.08 9.52Q28.10 9.52 28.13 9.48L28.13 9.48L28.13 9.48Q28.15 9.45 28.21 9.36L28.21 9.36L28.21 9.36Q28.27 9.27 28.36 9.09L28.36 9.09L28.36 9.09Q28.45 8.92 28.59 8.64L28.59 8.64L28.59 8.64Q28.87 8.06 29.00 7.59L29.00 7.59L29.00 7.59Q29.13 7.13 29.22 6.87L29.22 6.87L29.57 5.89L29.57 5.89Q29.60 5.78 29.67 5.62L29.67 5.62L29.67 5.62Q29.75 5.46 29.96 5.49ZM33.91 5.60L33.91 5.60L33.91 5.60Q33.96 5.60 34.10 5.66L34.10 5.66L34.10 5.66Q34.23 5.73 34.23 6.02L34.23 6.02L34.23 6.02Q34.23 6.48 33.68 8.12L33.68 8.12L33.68 8.12Q33.33 9.20 33.03 9.80L33.03 9.80L33.03 9.80Q32.69 10.44 32.34 10.44L32.34 10.44L32.34 10.44Q31.60 10.44 31.39 9.21L31.39 9.21L31.39 9.21Q31.35 9.02 31.31 8.68L31.31 8.68L31.31 8.68Q31.28 8.34 31.25 7.85L31.25 7.85L31.25 7.85Q31.16 8.20 31.05 8.63L31.05 8.63L31.05 8.63Q30.94 9.06 30.80 9.58L30.80 9.58L30.80 9.58Q30.77 9.65 30.73 9.78L30.73 9.78L30.73 9.78Q30.69 9.91 30.62 10.04L30.62 10.04L30.62 10.04Q30.55 10.18 30.43 10.28L30.43 10.28L30.43 10.28Q30.31 10.37 30.14 10.37L30.14 10.37L30.14 10.37Q30.06 10.37 29.94 10.35L29.94 10.35L29.94 10.35Q29.82 10.32 29.71 10.23L29.71 10.23L29.71 10.23Q29.60 10.15 29.51 10.00L29.51 10.00L29.51 10.00Q29.41 9.84 29.37 9.58L29.37 9.58L29.37 9.56L29.37 9.56Q29.36 9.28 29.34 8.99L29.34 8.99L29.34 8.99Q29.33 8.71 29.32 8.43L29.32 8.43L29.32 8.43Q29.27 7.81 29.32 7.21L29.32 7.21L29.32 7.21Q29.33 6.99 29.34 6.87L29.34 6.87L29.34 6.87Q29.34 6.76 29.36 6.71L29.36 6.71L29.25 6.47L29.25 6.47Q29.22 6.41 29.22 6.37L29.22 6.37L29.22 6.37Q29.25 6.06 29.27 5.94L29.27 5.94L29.27 5.94Q29.29 5.82 29.32 5.77L29.32 5.77L29.32 5.77Q29.44 5.40 29.88 5.40L29.88 5.40L29.88 5.40Q30.11 5.40 30.24 5.53L30.24 5.53L30.24 5.53Q30.37 5.66 30.37 5.87L30.37 5.87L30.37 5.87Q30.37 5.89 30.35 5.96L30.35 5.96L30.35 5.96Q30.34 6.02 30.27 6.27L30.27 6.27L30.27 6.27Q30.23 6.41 30.20 6.52L30.20 6.52L30.20 6.52Q30.17 6.64 30.17 6.75L30.17 6.75L30.17 6.75Q30.17 6.90 30.17 7.13L30.17 7.13L30.17 7.13Q30.17 7.35 30.16 7.63L30.16 7.63L30.16 7.63Q30.16 7.91 30.15 8.09L30.15 8.09L30.15 8.09Q30.14 8.27 30.14 8.36L30.14 8.36L30.14 8.36Q30.14 8.83 30.18 9.02L30.18 9.02L30.18 9.00L30.18 9.00Q30.30 8.60 30.37 8.32L30.37 8.32L30.37 8.32Q30.44 8.04 30.51 7.85L30.51 7.85L30.51 7.85Q30.93 6.55 31.01 5.57L31.01 5.57L31.01 5.57Q31.05 4.83 31.30 4.68L31.30 4.68L31.30 4.68Q31.36 4.63 31.43 4.63L31.43 4.63L31.43 4.63Q32.02 4.68 32.20 4.89L32.20 4.89L32.20 4.89Q32.38 5.11 32.38 5.32L32.38 5.32L32.38 5.36L32.38 5.36Q32.37 5.39 32.34 5.59L32.34 5.59L32.34 5.59Q32.31 5.78 32.21 6.36L32.21 6.36L32.21 6.36Q32.14 6.86 32.10 7.29L32.10 7.29L32.10 7.29Q32.06 7.71 32.06 8.08L32.06 8.08L32.06 8.08Q32.06 8.54 32.09 8.82L32.09 8.82L32.09 8.82Q32.12 9.10 32.16 9.25L32.16 9.25L32.16 9.25Q32.20 9.39 32.24 9.44L32.24 9.44L32.24 9.44Q32.27 9.49 32.28 9.49L32.28 9.49L32.28 9.49Q32.30 9.48 32.35 9.43L32.35 9.43L32.35 9.43Q32.40 9.38 32.48 9.23L32.48 9.23L32.48 9.23Q32.56 9.07 32.69 8.79L32.69 8.79L32.69 8.79Q32.82 8.51 32.97 8.05L32.97 8.05L32.97 8.05Q33.12 7.56 33.25 7.10L33.25 7.10L33.25 7.10Q33.38 6.64 33.47 6.22L33.47 6.22L33.47 6.22Q33.53 5.98 33.62 5.79L33.62 5.79L33.62 5.79Q33.71 5.60 33.91 5.60ZM38.01 5.60L38.01 5.60L38.01 5.60Q38.07 5.60 38.20 5.66L38.20 5.66L38.20 5.66Q38.33 5.73 38.33 6.02L38.33 6.02L38.33 6.02Q38.33 6.48 37.79 8.12L37.79 8.12L37.79 8.12Q37.44 9.20 37.13 9.80L37.13 9.80L37.13 9.80Q36.79 10.44 36.44 10.44L36.44 10.44L36.44 10.44Q35.70 10.44 35.49 9.21L35.49 9.21L35.49 9.21Q35.45 9.02 35.41 8.68L35.41 8.68L35.41 8.68Q35.38 8.34 35.35 7.85L35.35 7.85L35.35 7.85Q35.27 8.20 35.15 8.63L35.15 8.63L35.15 8.63Q35.04 9.06 34.90 9.58L34.90 9.58L34.90 9.58Q34.87 9.65 34.83 9.78L34.83 9.78L34.83 9.78Q34.79 9.91 34.72 10.04L34.72 10.04L34.72 10.04Q34.65 10.18 34.53 10.28L34.53 10.28L34.53 10.28Q34.41 10.37 34.24 10.37L34.24 10.37L34.24 10.37Q34.16 10.37 34.04 10.35L34.04 10.35L34.04 10.35Q33.92 10.32 33.81 10.23L33.81 10.23L33.81 10.23Q33.70 10.15 33.61 10.00L33.61 10.00L33.61 10.00Q33.52 9.84 33.47 9.58L33.47 9.58L33.47 9.56L33.47 9.56Q33.46 9.28 33.45 8.99L33.45 8.99L33.45 8.99Q33.43 8.71 33.42 8.43L33.42 8.43L33.42 8.43Q33.38 7.81 33.42 7.21L33.42 7.21L33.42 7.21Q33.43 6.99 33.44 6.87L33.44 6.87L33.44 6.87Q33.45 6.76 33.46 6.71L33.46 6.71L33.35 6.47L33.35 6.47Q33.32 6.41 33.32 6.37L33.32 6.37L33.32 6.37Q33.35 6.06 33.37 5.94L33.37 5.94L33.37 5.94Q33.39 5.82 33.42 5.77L33.42 5.77L33.42 5.77Q33.54 5.40 33.98 5.40L33.98 5.40L33.98 5.40Q34.22 5.40 34.34 5.53L34.34 5.53L34.34 5.53Q34.47 5.66 34.47 5.87L34.47 5.87L34.47 5.87Q34.47 5.89 34.45 5.96L34.45 5.96L34.45 5.96Q34.44 6.02 34.37 6.27L34.37 6.27L34.37 6.27Q34.33 6.41 34.30 6.52L34.30 6.52L34.30 6.52Q34.27 6.64 34.27 6.75L34.27 6.75L34.27 6.75Q34.27 6.90 34.27 7.13L34.27 7.13L34.27 7.13Q34.27 7.35 34.26 7.63L34.26 7.63L34.26 7.63Q34.26 7.91 34.25 8.09L34.25 8.09L34.25 8.09Q34.24 8.27 34.24 8.36L34.24 8.36L34.24 8.36Q34.24 8.83 34.29 9.02L34.29 9.02L34.29 9.00L34.29 9.00Q34.40 8.60 34.47 8.32L34.47 8.32L34.47 8.32Q34.54 8.04 34.61 7.85L34.61 7.85L34.61 7.85Q35.03 6.55 35.11 5.57L35.11 5.57L35.11 5.57Q35.15 4.83 35.41 4.68L35.41 4.68L35.41 4.68Q35.46 4.63 35.53 4.63L35.53 4.63L35.53 4.63Q36.12 4.68 36.30 4.89L36.30 4.89L36.30 4.89Q36.48 5.11 36.48 5.32L36.48 5.32L36.48 5.36L36.48 5.36Q36.47 5.39 36.44 5.59L36.44 5.59L36.44 5.59Q36.41 5.78 36.32 6.36L36.32 6.36L36.32 6.36Q36.25 6.86 36.20 7.29L36.20 7.29L36.20 7.29Q36.16 7.71 36.16 8.08L36.16 8.08L36.16 8.08Q36.16 8.54 36.19 8.82L36.19 8.82L36.19 8.82Q36.22 9.10 36.26 9.25L36.26 9.25L36.26 9.25Q36.30 9.39 36.34 9.44L36.34 9.44L36.34 9.44Q36.37 9.49 36.39 9.49L36.39 9.49L36.39 9.49Q36.40 9.48 36.45 9.43L36.45 9.43L36.45 9.43Q36.50 9.38 36.58 9.23L36.58 9.23L36.58 9.23Q36.67 9.07 36.79 8.79L36.79 8.79L36.79 8.79Q36.92 8.51 37.07 8.05L37.07 8.05L37.07 8.05Q37.23 7.56 37.35 7.10L37.35 7.10L37.35 7.10Q37.48 6.64 37.58 6.22L37.58 6.22L37.58 6.22Q37.63 5.98 37.72 5.79L37.72 5.79L37.72 5.79Q37.81 5.60 38.01 5.60ZM41.10 5.49L41.10 5.49L41.10 5.49Q41.29 5.49 41.27 5.59L41.27 5.59L41.27 5.59Q41.26 5.70 41.26 5.87L41.26 5.87L41.26 5.87Q41.26 5.89 41.25 5.96L41.25 5.96L41.25 5.96Q41.24 6.02 41.22 6.13L41.22 6.13L41.22 6.13Q41.19 6.24 41.15 6.44L41.15 6.44L41.15 6.44Q41.10 6.64 41.02 6.93L41.02 6.93L41.02 6.93Q40.75 8.01 40.45 8.83L40.45 8.83L40.45 8.83Q40.29 9.24 40.14 9.53L40.14 9.53L40.14 9.53Q40.00 9.81 39.86 10.01L39.86 10.01L39.86 10.01Q39.48 10.54 38.91 10.54L38.91 10.54L38.91 10.54Q38.26 10.54 37.80 9.87L37.80 9.87L37.80 9.87Q37.38 9.24 37.38 8.34L37.38 8.34L37.38 8.34Q37.38 7.62 37.48 6.87L37.48 6.87L37.48 6.87Q37.59 6.13 37.76 5.54L37.76 5.54L37.76 5.54Q37.81 5.33 37.89 5.11L37.89 5.11L37.89 5.11Q37.97 4.89 38.08 4.70L38.08 4.70L38.08 4.70Q38.19 4.51 38.33 4.39L38.33 4.39L38.33 4.39Q38.47 4.27 38.67 4.27L38.67 4.27L38.67 4.27Q39.06 4.27 39.40 4.56L39.40 4.56L39.40 4.56Q39.55 4.72 39.65 4.94L39.65 4.94L39.65 4.94Q39.75 5.17 39.75 5.33L39.75 5.33L39.75 5.33Q39.75 5.61 39.69 5.95L39.69 5.95L39.69 5.95Q39.63 6.29 39.55 6.62L39.55 6.62L39.55 6.62Q39.47 6.94 39.36 7.22L39.36 7.22L39.36 7.22Q39.26 7.49 39.14 7.66L39.14 7.66L39.14 7.66Q39.07 7.78 38.95 7.91L38.95 7.91L38.95 7.91Q38.82 8.04 38.69 8.11L38.69 8.11L38.69 8.11Q38.56 8.19 38.44 8.20L38.44 8.20L38.44 8.20Q38.32 8.20 38.23 8.09L38.23 8.09L38.23 8.09Q38.21 8.20 38.22 8.39L38.22 8.39L38.22 8.39Q38.23 8.57 38.26 8.74L38.26 8.74L38.26 8.74Q38.29 8.92 38.33 9.07L38.33 9.07L38.33 9.07Q38.37 9.23 38.40 9.30L38.40 9.30L38.40 9.30Q38.51 9.53 38.70 9.65L38.70 9.65L38.70 9.65Q38.88 9.77 38.95 9.77L38.95 9.77L38.95 9.77Q39.09 9.77 39.22 9.56L39.22 9.56L39.22 9.56Q39.35 9.35 39.56 9.03L39.56 9.03L39.56 9.03Q39.80 8.65 40.10 7.97L40.10 7.97L40.10 7.97Q40.39 7.28 40.63 6.50L40.63 6.50L40.63 6.50Q40.67 6.34 40.70 6.20L40.70 6.20L40.70 6.20Q40.74 6.05 40.78 5.89L40.78 5.89L40.78 5.89Q40.85 5.49 41.10 5.49ZM38.91 5.19L38.91 5.19L38.91 5.19Q38.79 5.50 38.70 5.75L38.70 5.75L38.70 5.75Q38.61 5.99 38.53 6.22L38.53 6.22L38.53 6.22Q38.44 6.45 38.39 6.69L38.39 6.69L38.39 6.69Q38.33 6.93 38.32 7.22L38.32 7.22L38.32 7.22Q38.50 7.21 38.63 6.97L38.63 6.97L38.63 6.97Q38.77 6.73 38.81 6.54L38.81 6.54L38.81 6.54Q38.86 6.26 38.93 5.97L38.93 5.97L38.93 5.97Q38.99 5.68 38.99 5.38L38.99 5.38L38.99 5.38Q38.99 5.31 38.97 5.20L38.97 5.20L38.97 5.20Q38.95 5.10 38.91 5.19ZM44.37 5.53L44.37 5.53L44.37 5.53Q44.42 5.53 44.55 5.59L44.55 5.59L44.55 5.59Q44.69 5.66 44.69 5.95L44.69 5.95L44.69 5.95Q44.69 6.44 44.10 8.29L44.10 8.29L44.10 8.29Q43.86 8.99 43.68 9.41L43.68 9.41L43.68 9.41Q43.50 9.83 43.35 10.05L43.35 10.05L43.35 10.05Q43.20 10.28 43.09 10.35L43.09 10.35L43.09 10.35Q42.97 10.42 42.87 10.42L42.87 10.42L42.87 10.42Q42.29 10.42 41.93 9.77L41.93 9.77L41.93 9.77Q41.87 9.70 41.83 9.49L41.83 9.49L41.83 9.49Q41.78 9.28 41.75 8.76L41.75 8.76L41.75 7.69L41.75 6.48L41.75 6.48Q41.75 6.45 41.69 6.35L41.69 6.35L41.69 6.35Q41.64 6.24 41.38 6.08L41.38 6.08L41.38 6.08Q41.30 6.52 41.05 7.39L41.05 7.39L41.05 7.39Q41.05 7.43 40.96 7.60L40.96 7.60L40.96 7.60Q40.94 7.66 40.92 7.69L40.92 7.69L40.92 7.69Q40.91 7.71 40.89 7.73L40.89 7.73L40.89 7.73Q40.89 7.78 40.82 7.83L40.82 7.83L40.82 7.83Q40.75 7.90 40.66 7.85L40.66 7.85L40.45 7.80L40.45 7.80Q40.29 7.74 40.29 7.60L40.29 7.60L40.29 7.60Q40.29 7.59 40.29 7.55L40.29 7.55L40.29 7.55Q40.29 7.52 40.31 7.43L40.31 7.43L40.31 7.43Q40.33 7.34 40.38 7.17L40.38 7.17L40.38 7.17Q40.42 7 40.50 6.71L40.50 6.71L40.50 6.71Q40.68 6.02 40.68 5.60L40.68 5.60L40.68 5.60Q40.68 5.57 40.67 5.47L40.67 5.47L40.67 5.47Q40.66 5.36 40.59 5.17L40.59 5.17L40.59 5.17Q40.45 4.83 40.45 4.56L40.45 4.56L40.45 4.56Q40.45 4.27 40.50 4.09L40.50 4.09L40.50 4.09Q40.56 3.91 40.64 3.80L40.64 3.80L40.64 3.80Q40.73 3.70 40.83 3.65L40.83 3.65L40.83 3.65Q40.94 3.61 41.03 3.61L41.03 3.61L41.03 3.61Q41.09 3.61 41.17 3.63L41.17 3.63L41.17 3.63Q41.26 3.65 41.34 3.72L41.34 3.72L41.34 3.72Q41.41 3.79 41.48 3.93L41.48 3.93L41.48 3.93Q41.54 4.06 41.55 4.27L41.55 4.27L41.55 4.27Q41.57 4.41 41.52 4.76L41.52 4.76L41.52 4.76Q41.50 4.96 41.50 5.05L41.50 5.05L41.50 5.05Q41.50 5.15 41.50 5.21L41.50 5.21L41.50 5.21Q41.51 5.24 41.61 5.31L41.61 5.31L41.61 5.31Q41.71 5.38 42.01 5.53L42.01 5.53L42.01 5.53Q42.77 5.89 42.77 6.47L42.77 6.47L42.77 6.47Q42.77 6.50 42.76 6.57L42.76 6.57L42.76 6.57Q42.76 6.65 42.75 6.80L42.75 6.80L42.75 6.80Q42.74 6.96 42.71 7.22L42.71 7.22L42.71 7.22Q42.69 7.49 42.64 7.91L42.64 7.91L42.64 7.91Q42.62 8.20 42.59 8.40L42.59 8.40L42.59 8.40Q42.57 8.60 42.56 8.72L42.56 8.72L42.56 8.72Q42.55 8.85 42.54 8.93L42.54 8.93L42.54 8.93Q42.53 9.02 42.53 9.10L42.53 9.10L42.53 9.10Q42.53 9.44 42.60 9.52L42.60 9.52L42.60 9.52Q42.67 9.60 42.74 9.60L42.74 9.60L42.74 9.60Q42.76 9.59 42.80 9.53L42.80 9.53L42.80 9.53Q42.85 9.46 42.93 9.30L42.93 9.30L42.93 9.30Q43.01 9.14 43.11 8.87L43.11 8.87L43.11 8.87Q43.22 8.60 43.37 8.16L43.37 8.16L43.37 8.16Q43.85 6.79 43.96 6.05L43.96 6.05L43.96 6.05Q44.00 5.73 44.13 5.63L44.13 5.63L44.13 5.63Q44.25 5.53 44.37 5.53Z"></path></g><defs data-v-fde0c5aa=""><!----></defs><g data-v-fde0c5aa="" id="30d7a020-9def-40ec-8460-42cf7e30609a" stroke="none" fill="#ffffff" transform="matrix(1.6625514030456543,0,0,1.6625514030456543,66.8724279835391,24.20576131687243)"><path d="M25.401 9.518c-1.237.152-1.974.66-2.67 1.183-3.018 2.654-5.186 6.286-5.966 9.898-.437 2.108-.44 4.504.816 6.66l17.116 29.384c.79 1.351 2.748 1.87 4.114 1.09l2.606-1.495 1.1 1.868 3.454-5.976-.848-1.463c-.79-1.351-2.748-1.87-4.114-1.09l-2.606 1.494c-5.36-9.2-10.102-17.347-15.609-26.8-.252-.433-.373-1.26-.125-2.458.523-2.044 1.415-3.77 2.7-5.136L46.003 52.13l3.486-5.977-20.256-34.768c-.69-1.185-2.594-2.02-3.83-1.867zm37.372 2.054c-4.381 2.082-8.368 5.833-11.243 10.77-2.876 4.936-4.14 10.201-3.769 15.003.238 3.076 1.21 6.088 3.015 8.497-7.372 12.704-14.8 25.426-22.203 38.13-.787 1.353-.264 3.293 1.1 4.077l3.485 1.992c1.365.78 3.323.262 4.114-1.09 7.333-12.741 14.922-25.375 22.203-38.129 3.017.353 6.134-.31 8.95-1.65 4.381-2.081 8.368-5.77 11.243-10.707 2.876-4.936 4.14-10.263 3.769-15.065-.371-4.801-2.552-9.384-6.878-11.859-4.764-1.67-9.93-1.612-13.786.031zm-6.344 46.503c-2.32 3.991-4.637 7.97-6.972 11.952l11.086 19.018c.79 1.351 2.748 1.87 4.114 1.09l5.213-2.988c1.363-.784 1.886-2.725 1.1-4.078z" style="text-indent:0;text-transform:none;block-progression:tb" overflow="visible" color="#000"></path></g><!----></svg>