<svg data-v-423bf9ae="" xmlns="http://www.w3.org/2000/svg" viewBox="0 0 49.629629629629626 60" class="icon"><!----><!----><!----><!----><g data-v-423bf9ae="" id="b42bfe50-37fd-4e09-a015-1074297120cd" transform="matrix(0.7407407164573669,0,0,0.7407407164573669,-12.222220420837402,-7.037035942077637)" stroke="none" fill="black"><path d="M25.401 9.518c-1.237.152-1.974.66-2.67 1.183-3.018 2.654-5.186 6.286-5.966 9.898-.437 2.108-.44 4.504.816 6.66l17.116 29.384c.79 1.351 2.748 1.87 4.114 1.09l2.606-1.495 1.1 1.868 3.454-5.976-.848-1.463c-.79-1.351-2.748-1.87-4.114-1.09l-2.606 1.494c-5.36-9.2-10.102-17.347-15.609-26.8-.252-.433-.373-1.26-.125-2.458.523-2.044 1.415-3.77 2.7-5.136L46.003 52.13l3.486-5.977-20.256-34.768c-.69-1.185-2.594-2.02-3.83-1.867zm37.372 2.054c-4.381 2.082-8.368 5.833-11.243 10.77-2.876 4.936-4.14 10.201-3.769 15.003.238 3.076 1.21 6.088 3.015 8.497-7.372 12.704-14.8 25.426-22.203 38.13-.787 1.353-.264 3.293 1.1 4.077l3.485 1.992c1.365.78 3.323.262 4.114-1.09 7.333-12.741 14.922-25.375 22.203-38.129 3.017.353 6.134-.31 8.95-1.65 4.381-2.081 8.368-5.77 11.243-10.707 2.876-4.936 4.14-10.263 3.769-15.065-.371-4.801-2.552-9.384-6.878-11.859-4.764-1.67-9.93-1.612-13.786.031zm-6.344 46.503c-2.32 3.991-4.637 7.97-6.972 11.952l11.086 19.018c.79 1.351 2.748 1.87 4.114 1.09l5.213-2.988c1.363-.784 1.886-2.725 1.1-4.078z" style="text-indent:0;text-transform:none;block-progression:tb" overflow="visible" color="#000"></path></g><!----></svg>