<svg data-v-423bf9ae="" xmlns="http://www.w3.org/2000/svg" viewBox="0 0 533 90" class="iconLeft"><!----><!----><!----><g data-v-423bf9ae="" id="4e23ac5c-1759-4565-8b03-a33113b348ea" fill="black" transform="matrix(5.27110481262207,0,0,5.27110481262207,121.8064193725586,-0.6485912799835205)"><path d="M3.42 6.57C3.42 4.94 4.51 3.81 6.08 3.81C7.07 3.81 7.70 4.00 8.34 4.21C9.07 4.44 9.90 4.69 11.37 4.72L8.85 9.30C6.78 13.17 5.81 14.07 3.58 14.07C2.70 14.07 1.85 13.69 1.29 13.08C0.74 12.47 0.50 11.66 0.60 10.72L0.32 10.70C0.21 11.72 0.48 12.60 1.08 13.27C1.69 13.94 2.63 14.35 3.58 14.35C5.95 14.35 6.97 13.43 9.10 9.42L10.22 7.38L10.77 14.15L11.02 14.22C11.68 13.34 12.26 12.52 12.81 11.77C13.94 10.21 14.92 8.89 15.79 7.80L15.16 9.87C14.46 12.17 14.83 13.96 16.80 13.96C17.61 13.96 18.07 13.43 18.07 13.43L17.89 13.19C17.89 13.19 17.50 13.66 16.84 13.66C16.38 13.03 16.49 11.65 17.04 9.95C17.72 7.77 18.41 5.52 18.63 4.82C19.07 4.51 19.43 4.34 19.74 4.34L19.74 4.06C18.34 4.06 16.25 6.54 12.57 11.61L12.29 12.00L11.70 4.44C10.04 4.44 9.23 4.19 8.43 3.93C7.76 3.72 7.11 3.53 6.08 3.53C4.34 3.53 3.14 4.77 3.14 6.57L3.42 6.57ZM22.55 6.59C20.73 6.59 19.52 7.90 19.52 10.15C19.52 11.37 20.27 12.17 21.81 12.17C23.98 12.17 24.36 10.32 24.36 10.32L24.11 10.21C24.11 10.22 23.60 11.84 22.12 11.84C21.57 11.84 21.10 11.51 21.10 10.61C21.10 10.33 21.11 10.07 21.13 9.81C23.14 9.80 24.33 9.20 24.33 8.01C24.33 7.15 23.83 6.59 22.55 6.59ZM22.96 6.94C23.62 6.94 23.98 7.41 23.98 8.01C23.98 8.89 23.25 9.48 21.17 9.49C21.41 7.70 22.23 6.94 22.96 6.94ZM31.14 6.59C31.14 6.59 30.49 6.72 29.41 6.72C29.34 7.06 29.30 7.29 29.26 7.56C29.06 7.00 28.66 6.59 27.90 6.59C26.28 6.59 25.09 7.83 25.09 10.01C25.09 11.41 25.91 12.17 27.12 12.17C27.89 12.17 28.39 11.61 28.69 11.09C28.76 11.77 29.22 12.17 30.03 12.17C30.45 12.17 30.81 11.98 31.08 11.66L30.87 11.49C30.69 11.72 30.45 11.86 30.17 11.89ZM27.30 11.84C26.92 11.84 26.67 11.62 26.67 10.72C26.67 9.17 27.20 6.94 28.20 6.94C28.73 6.94 29.06 7.59 29.12 8.26C28.91 9.42 28.81 10.01 28.76 10.28C28.64 10.58 28.10 11.84 27.30 11.84ZM33.39 11.89C34.03 8.41 34.79 3.68 34.80 3.22C35.25 3.22 35.60 3.78 35.60 4.45C35.60 6.08 34.43 7.27 34.43 8.78L34.68 8.78C34.68 7.42 35.87 6.02 35.87 4.45C35.87 3.43 35.34 2.97 34.71 2.97C33.77 2.97 33.18 3.63 32.84 5.53L31.93 10.57C31.92 10.70 31.91 10.82 31.91 10.93C31.91 11.72 32.38 12.17 33.25 12.17C34.55 12.17 35 10.36 35 10.36L34.75 10.25C34.75 10.25 34.26 11.89 33.39 11.89ZM38.56 12.15C40.42 12.15 41.78 10.86 41.78 8.61C41.78 7.39 41.10 6.59 39.82 6.59C39.03 6.59 38.54 7.14 38.25 7.64C38.21 6.92 37.73 6.50 36.90 6.50C36.48 6.50 36.12 6.68 35.85 7.00L36.06 7.17C36.25 6.94 36.48 6.80 36.76 6.78L35.45 14.11L37.11 14.11L37.53 11.86C37.73 12.01 38.05 12.15 38.56 12.15ZM38.14 8.55L38.15 8.55C38.15 8.54 38.72 6.92 39.63 6.92C40.01 6.92 40.19 7.14 40.19 8.04C40.19 10.12 39.42 11.83 38.51 11.83C37.94 11.83 37.73 11.52 37.63 11.30ZM43.99 11.89C44.63 8.41 45.39 3.68 45.40 3.22C45.85 3.22 46.20 3.78 46.20 4.45C46.20 6.08 45.02 7.27 45.02 8.78L45.28 8.78C45.28 7.42 46.47 6.02 46.47 4.45C46.47 3.43 45.93 2.97 45.30 2.97C44.37 2.97 43.78 3.63 43.44 5.53L42.53 10.57C42.52 10.70 42.50 10.82 42.50 10.93C42.50 11.72 42.98 12.17 43.85 12.17C45.15 12.17 45.60 10.36 45.60 10.36L45.35 10.25C45.35 10.25 44.86 11.89 43.99 11.89ZM52.40 6.59C52.40 6.59 51.76 6.72 50.68 6.72C50.61 7.06 50.57 7.29 50.53 7.56C50.33 7.00 49.92 6.59 49.17 6.59C47.54 6.59 46.35 7.83 46.35 10.01C46.35 11.41 47.18 12.17 48.38 12.17C49.15 12.17 49.66 11.61 49.95 11.09C50.02 11.77 50.48 12.17 51.30 12.17C51.72 12.17 52.08 11.98 52.35 11.66L52.14 11.49C51.95 11.72 51.72 11.86 51.44 11.89ZM48.57 11.84C48.19 11.84 47.94 11.62 47.94 10.72C47.94 9.17 48.47 6.94 49.46 6.94C49.99 6.94 50.33 7.59 50.39 8.26C50.18 9.42 50.08 10.01 50.02 10.28C49.91 10.58 49.36 11.84 48.57 11.84ZM59.11 8.36C59.11 7.25 58.45 6.59 57.36 6.59C56.39 6.59 55.89 7.17 55.57 7.91L55.57 7.83C55.57 7.04 55.09 6.59 54.22 6.59C53.80 6.59 53.44 6.78 53.17 7.10L53.38 7.27C53.56 7.04 53.80 6.90 54.08 6.87L53.62 9.46C53.52 10.05 53.40 10.57 53.40 11.00C53.40 11.68 53.87 12.17 54.74 12.17C55.16 12.17 55.52 11.98 55.79 11.66L55.58 11.49C55.40 11.72 55.15 11.86 54.87 11.89L55.34 9.27C55.72 7.88 56.32 7.01 56.94 7.01C57.32 7.01 57.51 7.17 57.51 7.62C57.51 8.44 57.01 10.07 57.01 11.02C57.01 11.76 57.44 12.17 58.28 12.17C59.19 12.17 59.46 11.66 59.46 11.66L59.25 11.49C59.25 11.49 58.91 11.89 58.55 11.89C58.60 10.68 59.11 9.24 59.11 8.36ZM66.09 8.36C66.09 7.25 65.44 6.59 64.34 6.59C63.38 6.59 62.87 7.17 62.55 7.91L62.55 7.83C62.55 7.04 62.08 6.59 61.21 6.59C60.79 6.59 60.42 6.78 60.16 7.10L60.37 7.27C60.55 7.04 60.79 6.90 61.07 6.87L60.61 9.46C60.51 10.05 60.38 10.57 60.38 11.00C60.38 11.68 60.86 12.17 61.73 12.17C62.15 12.17 62.51 11.98 62.78 11.66L62.57 11.49C62.38 11.72 62.13 11.86 61.85 11.89L62.33 9.27C62.71 7.88 63.31 7.01 63.92 7.01C64.30 7.01 64.50 7.17 64.50 7.62C64.50 8.44 63.99 10.07 63.99 11.02C63.99 11.76 64.43 12.17 65.27 12.17C66.18 12.17 66.44 11.66 66.44 11.66L66.23 11.49C66.23 11.49 65.90 11.89 65.53 11.89C65.59 10.68 66.09 9.24 66.09 8.36ZM70.13 6.59C68.31 6.59 67.09 7.90 67.09 10.15C67.09 11.37 67.84 12.17 69.38 12.17C71.55 12.17 71.93 10.32 71.93 10.32L71.68 10.21C71.68 10.22 71.18 11.84 69.69 11.84C69.15 11.84 68.67 11.51 68.67 10.61C68.67 10.33 68.68 10.07 68.70 9.81C70.71 9.80 71.90 9.20 71.90 8.01C71.90 7.15 71.40 6.59 70.13 6.59ZM70.53 6.94C71.19 6.94 71.55 7.41 71.55 8.01C71.55 8.89 70.83 9.48 68.74 9.49C68.98 7.70 69.80 6.94 70.53 6.94ZM72.95 7.27C73.14 7.04 73.37 6.90 73.65 6.87L72.73 12.04L74.41 12.04L74.91 9.25L74.91 9.24C74.96 9.10 75.61 6.92 76.78 6.92C77.15 6.92 77.49 7.03 77.49 7.77C77.49 8.72 76.29 9.51 76.29 10.51L76.62 10.51C76.62 9.63 77.85 8.82 77.85 7.71C77.85 6.93 77.50 6.59 76.78 6.59C76.08 6.59 75.57 7.00 75.14 7.91L75.14 7.83C75.14 7.04 74.66 6.59 73.79 6.59C73.37 6.59 73.01 6.78 72.74 7.10Z"></path></g><!----><g data-v-423bf9ae="" id="d79eebe7-4bb2-4877-9d75-f6217f1ce247" transform="matrix(1.160354495048523,0,0,1.160354495048523,-5.560693740844727,-12.798974990844727)" stroke="none" fill="black"><path d="M45.537 34.116a6.046 6.046 0 0 1-6.041-6.039c0-3.427 2.625-4.847 4.938-6.098 2.221-1.197 4.138-2.234 4.138-4.72a4.838 4.838 0 0 0-4.831-4.833.604.604 0 0 1 0-1.207c3.329 0 6.04 2.71 6.04 6.04 0 3.206-2.536 4.575-4.771 5.784-2.213 1.197-4.305 2.326-4.305 5.033a4.836 4.836 0 0 0 4.832 4.83.605.605 0 0 1 0 1.21zM56.841 34.06a4.683 4.683 0 0 1-4.679-4.678c0-2.657 2.009-3.742 3.781-4.701 1.62-.875 3.021-1.63 3.021-3.404a3.474 3.474 0 0 0-3.47-3.47.604.604 0 0 1 0-1.207 4.682 4.682 0 0 1 4.677 4.677c0 2.494-1.939 3.544-3.652 4.469-1.689.912-3.147 1.7-3.147 3.637a3.473 3.473 0 0 0 3.47 3.468.605.605 0 0 1-.001 1.209z"></path><path d="M87.673 43.181c.155-.04.32-.02.461.061a3.15 3.15 0 0 0 4.303-1.128 3.144 3.144 0 1 0-5.432-3.173.607.607 0 0 1-.828.219.609.609 0 0 1-.219-.826 3.147 3.147 0 0 0-3.516-4.627 3.147 3.147 0 0 0-.785 5.758.603.603 0 0 1 .211.836l-3.189 5.25.062.722 3.227-1.325a.901.901 0 0 1 1.242.725l.439 3.507.518-.212 3.139-5.502a.613.613 0 0 1 .367-.285z"></path><path d="M81.864 56.13l3.271-5.603-1.893.775A.901.901 0 0 1 82 50.578l-.438-3.507-3.271 1.341a.903.903 0 0 1-1.246-.758l-.15-1.729-1.289 2.209c-1.539 2.638-4.456 4.528-8.002 5.187-3.385.629-7.029.072-10.487-1.537a13.8 13.8 0 0 1 1.207 3.079.907.907 0 0 1-1.756.449c-1.548-6.068-7.823-10.107-13.981-9.003-6.248 1.116-10.729 7.147-9.986 13.442l.006.033h46.777a32.186 32.186 0 0 0 2.48-3.654zm-42.456-2.84a.825.825 0 1 1-1.153-1.179.825.825 0 0 1 1.153 1.179zm11.504-.512a.605.605 0 0 1-.854-.009c-1.371-1.407-3.066-2.322-4.772-2.578-1.647-.246-3.103.155-4.104 1.131a.605.605 0 0 1-.854-.009.605.605 0 0 1 .012-.855c1.275-1.244 3.095-1.764 5.125-1.461 1.967.293 3.903 1.332 5.459 2.929a.604.604 0 0 1-.012.852z"></path><path d="M45.464 48.999c-2.03-.304-3.85.215-5.125 1.461a.603.603 0 1 0 .842.863c1.001-.976 2.456-1.377 4.104-1.131 1.706.256 3.401 1.171 4.772 2.578a.606.606 0 0 0 .854.009.605.605 0 0 0 .012-.853c-1.555-1.595-3.494-2.634-5.459-2.927zM38.257 52.109a.829.829 0 0 0-.016 1.168.825.825 0 0 0 1.182-1.149.826.826 0 0 0-1.166-.019zM29.591 76.066a.9.9 0 1 0 0 1.801.9.9 0 1 0 0-1.801zM24.313 58.296c-.06 0-.12-.01-.181-.031-3.417-1.071-6.377-3.348-9.241-5.555a102.949 102.949 0 0 0-2.373-1.791.605.605 0 0 1 .71-.979c.798.578 1.612 1.205 2.401 1.812 2.779 2.14 5.654 4.354 8.864 5.361a.605.605 0 0 1-.18 1.183zM22.658 54.667c-.025 0-.05 0-.076-.004a.606.606 0 0 1-.523-.675c.188-1.528-.172-2.995-.991-4.02a.603.603 0 0 1 .096-.849.602.602 0 0 1 .849.094c1.037 1.297 1.479 3.046 1.246 4.922a.612.612 0 0 1-.601.532zM27.687 54.947a.602.602 0 0 1-.52-.911c.467-.787.627-1.787.48-2.973a.602.602 0 0 1 .523-.675.605.605 0 0 1 .674.522c.183 1.459-.032 2.717-.639 3.739a.597.597 0 0 1-.518.298zM15.486 58.048a7.217 7.217 0 0 1-3.158-.737.604.604 0 1 1 .533-1.086c1.456.716 3.152.815 4.543.261a.603.603 0 1 1 .446 1.122 6.424 6.424 0 0 1-2.364.44z"></path><path d="M93.636 59.786H81.645a34.381 34.381 0 0 0 1.784-2.742l4.617-7.914a.906.906 0 1 0-1.127-1.295l-.938.385 2.092-3.663c1.977.81 4.301.06 5.406-1.835a4.361 4.361 0 0 0-1.566-5.956 4.357 4.357 0 0 0-4.322-.03 4.348 4.348 0 0 0-8.106-2.178 4.357 4.357 0 0 0 1.058 5.604l-2.037 3.354-.052-.588a.905.905 0 0 0-1.685-.379l-2.728 4.675c-1.273 2.185-3.74 3.756-6.767 4.319-4.431.822-9.402-.655-13.647-4.058a.983.983 0 0 0-.166-.104c-3.062-2.43-7.103-3.588-11.194-2.854-.699.127-1.38.308-2.039.532-.16-1.691-1.767-2.115-2.851-2.396a9.521 9.521 0 0 1-.854-.252c-.603-.228-.777-.607-1.06-1.322-.226-.572-.481-1.223-1.121-1.771-.851-.728-1.875-.858-2.78-.972-.789-.104-1.535-.197-2.15-.646-.194-.14-.395-.3-.6-.461-1.259-.988-2.983-2.35-4.851-1.037-1.479 1.035-1.899 2.771-1.257 5.163-1.256.638-1.702 1.738-1.701 2.78-1.006.032-1.948.322-2.869.613-1.164.365-2.263.712-3.412.481a27.366 27.366 0 0 1-1.126-.258c-2.377-.567-5.635-1.349-7.384 1.656-1.388 2.384-.858 5.063 1.57 7.969-1.431 1.787-1.262 3.694-.479 5.18h-.644a.906.906 0 0 0-.906.906v5.438c0 8.203 5.768 15.078 13.459 16.797a3.604 3.604 0 0 0-.772 2.229 3.628 3.628 0 0 0 3.624 3.625h56.168c2 0 3.625-1.626 3.625-3.625 0-.84-.289-1.613-.771-2.229 7.69-1.719 13.457-8.594 13.457-16.797v-5.438a.907.907 0 0 0-.907-.906zM81.87 40.3a.603.603 0 0 0-.211-.836 3.147 3.147 0 0 1 .785-5.758 3.147 3.147 0 0 1 3.517 4.627.604.604 0 0 0 1.045.607 3.146 3.146 0 0 1 5.433 3.173 3.152 3.152 0 0 1-4.304 1.128.614.614 0 0 0-.459-.061.618.618 0 0 0-.369.283l-3.14 5.502-.517.212-.439-3.507a.907.907 0 0 0-1.242-.725l-3.227 1.325-.062-.722 3.19-5.248zm-39.285 6.01c6.157-1.104 12.434 2.936 13.98 9.003a.906.906 0 1 0 1.756-.449 13.755 13.755 0 0 0-1.207-3.078c3.458 1.608 7.104 2.166 10.487 1.536 3.546-.659 6.463-2.549 8.002-5.187l1.289-2.209.149 1.729a.905.905 0 0 0 1.246.759l3.271-1.342.438 3.506c.034.28.198.526.442.672.243.142.542.16.801.053l1.892-.775-3.27 5.602a32.053 32.053 0 0 1-2.482 3.656H32.603c-.002-.012-.006-.022-.006-.033-.742-6.295 3.74-12.327 9.988-13.443zm-18.953-4.032a.605.605 0 0 0 .379-.758c-.688-2.132-.478-3.552.643-4.334 1.05-.736 2.033-.083 3.408.999.218.172.431.339.635.487.867.633 1.85.758 2.712.867.843.106 1.57.199 2.146.693.41.352.593.811.783 1.297.293.741.627 1.582 1.758 2.008.308.114.647.205.977.291 1.368.355 1.968.609 1.962 1.524 0 .06.019.112.032.165a14.147 14.147 0 0 0-4.493 3.243c-1.258-2.498-3.758-2.06-5.595-1.732-.488.087-.948.169-1.356.199-.985.074-1.479-.351-2.329-1.165-.681-.648-1.451-1.383-2.682-1.736-.139-.037-.271-.061-.407-.086-.036-.661.185-1.532 1.427-1.962zM7.778 47.544c.994-1.709 2.783-1.426 5.396-.801.41.098.812.192 1.189.271 1.607.319 3.046-.134 4.313-.533 1.244-.392 2.319-.726 3.438-.409.797.225 1.345.748 1.922 1.303.882.84 1.882 1.791 3.714 1.66.502-.035 1.032-.13 1.545-.223 2.137-.379 3.135-.411 3.717.874.093.201.25.349.436.438-1.99 2.732-3.031 6.153-2.665 9.66H9.488c-.005-.006-.008-.013-.014-.019-.629-.707-1.872-2.562.148-4.498a.91.91 0 0 0 .041-1.269c-2.325-2.524-2.944-4.638-1.885-6.454zm70.453 39.422H22.063a1.813 1.813 0 0 1 0-3.624.736.736 0 0 0 .182-.019c.239.013.479.019.722.019h54.361c.242 0 .483-.006.723-.019.06.015.121.019.182.019.999 0 1.812.813 1.812 1.812a1.817 1.817 0 0 1-1.814 1.812zm14.5-20.838c0 8.492-6.911 15.401-15.403 15.401H22.966c-3.79 0-7.262-1.377-9.946-3.655h12.03a.906.906 0 0 0 0-1.813H11.21a15.39 15.39 0 0 1-2.287-3.624h9.479a.906.906 0 1 0 0-1.812H8.237A15.322 15.322 0 0 1 7.592 67h5.069a.905.905 0 1 0 0-1.811H7.565v-3.59H92.73l.001 4.529z"></path><path d="M28.875 44.593a.604.604 0 0 1-.525-.305 62.277 62.277 0 0 1-1.074-1.996 60.49 60.49 0 0 0-.919-1.713.607.607 0 0 1 .229-.824.605.605 0 0 1 .823.231c.315.563.623 1.151.935 1.744.344.651.688 1.312 1.058 1.959a.604.604 0 0 1-.228.823.598.598 0 0 1-.299.081zM31.698 45.722a.606.606 0 0 1-.319-.09.606.606 0 0 1-.194-.831c.503-.81.68-1.722.487-2.5a.604.604 0 0 1 1.171-.29c.272 1.107.049 2.326-.633 3.425a.598.598 0 0 1-.512.286z"></path></g><!----></svg>