<svg data-v-423bf9ae="" xmlns="http://www.w3.org/2000/svg" viewBox="0 0 487 90" class="iconLeft"><!----><!----><!----><g data-v-423bf9ae="" id="0cd1981d-67a8-4149-8e6e-7cc910cbb445" fill="black" transform="matrix(4.123489856719971,0,0,4.123489856719971,122.34041595458984,16.401342391967773)"><path d="M2.11 10.50L2.11 10.50Q1.79 10.50 1.35 10.27L1.35 10.27L1.35 10.27Q0.91 10.04 0.58 9.72L0.58 9.72L0.58 9.72Q0.25 9.39 0.25 9.18L0.25 9.18L0.25 9.18Q0.24 8.96 0.39 8.24L0.39 8.24L0.39 8.24Q0.53 7.52 0.57 7.31L0.57 7.31L0.57 7.31Q0.63 7.03 0.78 6.28L0.78 6.28L0.78 6.28Q0.94 5.53 1.04 4.89L1.04 4.89L1.15 4.23L1.15 4.23Q1.41 2.66 1.65 1.68L1.65 1.68L1.65 1.68Q1.88 0.70 2.11 0.70L2.11 0.70L2.11 0.70Q2.35 0.70 2.77 0.90L2.77 0.90L2.77 0.90Q3.18 1.09 3.54 1.39L3.54 1.39L3.54 1.39Q3.91 1.69 4.03 1.96L4.03 1.96L4.03 1.96Q4.26 2.46 4.62 4.12L4.62 4.12L4.62 4.12Q4.87 5.26 5.00 5.70L5.00 5.70L5.00 5.70Q5.60 4.79 6.54 2.91L6.54 2.91L6.54 2.91Q7.14 1.72 7.46 1.21L7.46 1.21L7.46 1.21Q7.77 0.70 8.02 0.70L8.02 0.70L8.02 0.70Q8.29 0.70 8.74 0.94L8.74 0.94L8.74 0.94Q9.20 1.18 9.54 1.50L9.54 1.50L9.54 1.50Q9.88 1.82 9.88 2.06L9.88 2.06L9.88 2.06Q9.88 2.25 9.72 3.16L9.72 3.16L9.72 3.16Q9.55 4.06 9.51 4.28L9.51 4.28L9.14 6.26L9.14 6.26Q9.00 7.08 8.85 8.43L8.85 8.43L8.85 8.43Q8.71 9.58 8.60 10.04L8.60 10.04L8.60 10.04Q8.50 10.50 8.27 10.50L8.27 10.50L8.27 10.50Q7.95 10.50 7.51 10.27L7.51 10.27L7.51 10.27Q7.07 10.04 6.74 9.72L6.74 9.72L6.74 9.72Q6.41 9.39 6.41 9.18L6.41 9.18L6.41 9.18Q6.40 9.00 6.52 8.41L6.52 8.41L6.52 8.41Q6.64 7.81 6.79 7.06L6.79 7.06L6.79 7.06Q6.92 6.45 6.93 6.37L6.93 6.37L7.43 4.82L7.24 4.75L7.10 5.03L7.10 5.03Q6.55 6.15 6.22 6.77L6.22 6.77L6.22 6.77Q5.89 7.39 5.68 7.66L5.68 7.66L5.68 7.66Q5.54 7.83 5.18 7.93L5.18 7.93L5.18 7.93Q4.82 8.04 4.47 8.04L4.47 8.04L4.47 8.04Q4.10 8.04 3.98 7.91L3.98 7.91L3.98 7.91Q3.85 7.80 3.76 7.44L3.76 7.44L3.76 7.44Q3.67 7.08 3.51 6.33L3.51 6.33L3.51 6.33Q3.49 6.17 3.36 5.58L3.36 5.58L3.36 5.58Q3.23 4.98 3.08 4.49L3.08 4.49L2.98 6.26L2.98 6.26Q2.84 7.08 2.69 8.43L2.69 8.43L2.69 8.43Q2.55 9.58 2.44 10.04L2.44 10.04L2.44 10.04Q2.34 10.50 2.11 10.50L2.11 10.50ZM13.19 10.50L13.19 10.50Q12.52 10.50 11.79 10.06L11.79 10.06L11.79 10.06Q11.06 9.62 10.58 8.97L10.58 8.97L10.58 8.97Q10.11 8.33 10.11 7.76L10.11 7.76L10.11 7.76Q10.11 6.73 10.59 5.52L10.59 5.52L10.59 5.52Q11.07 4.30 11.93 3.45L11.93 3.45L11.93 3.45Q12.78 2.60 13.86 2.60L13.86 2.60L13.86 2.60Q14.63 2.60 15.25 2.94L15.25 2.94L15.25 2.94Q15.88 3.28 16.23 3.78L16.23 3.78L16.23 3.78Q16.58 4.28 16.58 4.76L16.58 4.76L16.58 4.76Q16.58 5.35 16.04 5.92L16.04 5.92L16.04 5.92Q15.51 6.48 14.56 6.91L14.56 6.91L14.56 6.91Q13.61 7.34 12.39 7.52L12.39 7.52L12.39 7.52Q12.38 7.69 12.38 8.02L12.38 8.02L12.38 8.02Q12.38 8.44 12.40 8.65L12.40 8.65L12.40 8.65Q13.10 8.58 13.79 8.27L13.79 8.27L13.79 8.27Q14.48 7.97 15.29 7.41L15.29 7.41L15.29 7.41Q15.83 7.57 16.11 7.94L16.11 7.94L16.11 7.94Q16.39 8.30 16.39 8.81L16.39 8.81L16.39 8.81Q16.39 9.23 15.88 9.63L15.88 9.63L15.88 9.63Q15.37 10.02 14.62 10.26L14.62 10.26L14.62 10.26Q13.86 10.50 13.19 10.50L13.19 10.50ZM12.60 6.47L12.60 6.47Q13.45 6.16 14.03 5.68L14.03 5.68L14.03 5.68Q14.60 5.21 14.60 4.87L14.60 4.87L14.60 4.87Q14.60 4.48 14.06 4.34L14.06 4.34L14.06 4.34Q13.52 4.73 13.15 5.28L13.15 5.28L13.15 5.28Q12.78 5.82 12.60 6.47L12.60 6.47ZM23.90 8.44L23.90 8.44Q24.75 8.02 25.34 7.55L25.34 7.55L25.34 7.55Q25.96 7.76 26.26 8.13L26.26 8.13L26.26 8.13Q26.56 8.50 26.56 8.97L26.56 8.97L26.56 8.97Q26.56 9.31 26.08 9.67L26.08 9.67L26.08 9.67Q25.61 10.02 24.95 10.26L24.95 10.26L24.95 10.26Q24.29 10.50 23.83 10.50L23.83 10.50L23.83 10.50Q23.51 10.50 23.09 10.26L23.09 10.26L23.09 10.26Q22.68 10.02 22.38 9.70L22.38 9.70L22.38 9.70Q22.08 9.38 22.08 9.20L22.08 9.20L22.08 9.20Q22.08 9.06 22.20 8.82L22.20 8.82L22.20 8.82Q22.32 8.58 22.46 8.33L22.46 8.33L22.46 8.33Q22.60 8.08 22.64 7.99L22.64 7.99L22.29 7.80L22.29 7.80Q21.55 9.02 20.87 9.76L20.87 9.76L20.87 9.76Q20.19 10.50 19.53 10.50L19.53 10.50L19.53 10.50Q19.08 10.50 18.59 10.11L18.59 10.11L18.59 10.11Q18.09 9.72 17.75 9.16L17.75 9.16L17.75 9.16Q17.40 8.60 17.40 8.16L17.40 8.16L17.40 8.16Q17.40 6.92 17.92 5.61L17.92 5.61L17.92 5.61Q18.44 4.31 19.37 3.46L19.37 3.46L19.37 3.46Q20.30 2.60 21.48 2.60L21.48 2.60L21.48 2.60Q21.90 2.60 22.33 2.98L22.33 2.98L22.33 2.98Q22.76 3.36 22.89 3.75L22.89 3.75L22.89 3.75Q22.96 3.44 23.09 3.21L23.09 3.21L23.09 3.21Q23.23 2.98 23.38 2.98L23.38 2.98L23.38 2.98Q23.74 2.98 24.18 3.24L24.18 3.24L24.18 3.24Q24.63 3.50 24.93 3.84L24.93 3.84L24.93 3.84Q25.24 4.19 25.24 4.38L25.24 4.38L25.24 4.38Q25.23 4.65 25.02 5.26L25.02 5.26L25.02 5.26Q24.82 5.88 24.37 7.14L24.37 7.14L24.37 7.14Q24.11 7.83 23.90 8.44L23.90 8.44ZM19.60 8.55L19.60 8.55Q20.73 7.85 21.57 6.82L21.57 6.82L21.57 6.82Q22.41 5.80 22.72 4.55L22.72 4.55L22.72 4.55Q22.34 4.38 22.01 4.38L22.01 4.38L22.01 4.38Q21.35 4.38 20.83 4.97L20.83 4.97L20.83 4.97Q20.31 5.56 20.01 6.51L20.01 6.51L20.01 6.51Q19.70 7.46 19.60 8.55L19.60 8.55ZM29.22 10.50L29.22 10.50Q28.81 10.50 28.32 10.26L28.32 10.26L28.32 10.26Q27.82 10.01 27.47 9.68L27.47 9.68L27.47 9.68Q27.12 9.35 27.12 9.11L27.12 9.11L27.12 9.11Q27.12 8.88 27.31 7.94L27.31 7.94L27.31 7.94Q27.51 7 27.57 6.73L27.57 6.73L27.57 6.73Q27.99 4.80 28.13 4.06L28.13 4.06L28.27 3.28L28.27 3.28Q28.56 1.65 28.80 0.66L28.80 0.66L28.80 0.66Q29.05-0.34 29.30-0.34L29.30-0.34L29.30-0.34Q29.60-0.34 30.08-0.08L30.08-0.08L30.08-0.08Q30.56 0.17 30.93 0.50L30.93 0.50L30.93 0.50Q31.29 0.84 31.29 1.09L31.29 1.09L31.29 1.09Q31.29 1.43 31.17 1.74L31.17 1.74L31.17 1.74Q31.05 2.06 30.81 2.56L30.81 2.56L30.81 2.56Q30.59 3.00 30.51 3.23L30.51 3.23L30.51 3.23Q30.24 4.06 29.94 5.53L29.94 5.53L29.94 5.53Q29.64 7 29.44 8.37L29.44 8.37L29.44 8.37Q29.89 8.15 30.14 7.99L30.14 7.99L30.14 7.99Q30.39 7.83 30.73 7.55L30.73 7.55L30.73 7.55Q31.35 7.76 31.65 8.13L31.65 8.13L31.65 8.13Q31.95 8.50 31.95 8.97L31.95 8.97L31.95 8.97Q31.95 9.31 31.47 9.67L31.47 9.67L31.47 9.67Q31.00 10.02 30.34 10.26L30.34 10.26L30.34 10.26Q29.68 10.50 29.22 10.50L29.22 10.50ZM37.62 2.84L37.62 2.84Q38.36 2.84 38.93 3.19L38.93 3.19L38.93 3.19Q39.51 3.54 39.82 4.15L39.82 4.15L39.82 4.15Q40.14 4.76 40.14 5.52L40.14 5.52L40.14 5.52Q40.14 6.64 39.50 7.80L39.50 7.80L39.50 7.80Q38.86 8.97 37.84 9.74L37.84 9.74L37.84 9.74Q36.81 10.50 35.70 10.50L35.70 10.50L35.70 10.50Q35.22 10.50 34.75 10.12L34.75 10.12L34.75 10.12Q34.58 10.82 34.49 11.56L34.49 11.56L34.49 11.56Q34.40 12.29 34.38 12.42L34.38 12.42L34.38 12.42Q34.27 13.37 34.17 13.79L34.17 13.79L34.17 13.79Q34.06 14.21 33.84 14.21L33.84 14.21L33.84 14.21Q33.47 14.21 33.03 13.97L33.03 13.97L33.03 13.97Q32.59 13.73 32.28 13.41L32.28 13.41L32.28 13.41Q31.96 13.08 31.96 12.84L31.96 12.84L31.96 12.84Q31.96 12.57 32.20 11.66L32.20 11.66L32.20 11.66Q32.44 10.75 32.93 9.03L32.93 9.03L32.93 9.03Q33.36 7.49 33.60 6.61L33.60 6.61L33.60 6.61Q33.84 5.73 33.84 5.49L33.84 5.49L33.84 5.49Q33.84 5.38 33.72 5.26L33.72 5.26L33.72 5.26Q33.60 5.14 33.33 4.91L33.33 4.91L33.33 4.91Q33.04 4.68 32.90 4.54L32.90 4.54L32.90 4.54Q32.76 4.40 32.76 4.24L32.76 4.24L32.76 4.24Q32.76 3.95 33.03 3.56L33.03 3.56L33.03 3.56Q33.31 3.16 33.68 2.88L33.68 2.88L33.68 2.88Q34.05 2.60 34.31 2.60L34.31 2.60L34.31 2.60Q34.72 2.60 35.24 3.05L35.24 3.05L35.24 3.05Q35.76 3.50 35.98 3.95L35.98 3.95L36.53 3.02L36.53 3.02Q37.07 2.84 37.62 2.84L37.62 2.84ZM35.70 8.71L35.70 8.71Q36.15 8.71 36.68 8.24L36.68 8.24L36.68 8.24Q37.21 7.77 37.58 7.08L37.58 7.08L37.58 7.08Q37.94 6.38 37.94 5.75L37.94 5.75L37.94 5.75Q37.94 5.29 37.72 5.04L37.72 5.04L37.72 5.04Q37.49 4.79 37.07 4.79L37.07 4.79L37.07 4.79Q36.58 4.79 36.18 5.34L36.18 5.34L36.18 5.34Q35.78 5.89 35.55 6.69L35.55 6.69L35.55 6.69Q35.32 7.49 35.32 8.16L35.32 8.16L35.32 8.16Q35.32 8.43 35.43 8.57L35.43 8.57L35.43 8.57Q35.53 8.71 35.70 8.71L35.70 8.71ZM42.76 10.50L42.76 10.50Q42.35 10.50 41.85 10.26L41.85 10.26L41.85 10.26Q41.36 10.01 41.01 9.68L41.01 9.68L41.01 9.68Q40.66 9.35 40.66 9.11L40.66 9.11L40.66 9.11Q40.66 8.88 40.85 7.94L40.85 7.94L40.85 7.94Q41.05 7 41.10 6.73L41.10 6.73L41.10 6.73Q41.52 4.80 41.66 4.06L41.66 4.06L41.80 3.28L41.80 3.28Q42.10 1.65 42.34 0.66L42.34 0.66L42.34 0.66Q42.59-0.34 42.84-0.34L42.84-0.34L42.84-0.34Q43.13-0.34 43.62-0.08L43.62-0.08L43.62-0.08Q44.10 0.17 44.46 0.50L44.46 0.50L44.46 0.50Q44.83 0.84 44.83 1.09L44.83 1.09L44.83 1.09Q44.83 1.43 44.71 1.74L44.71 1.74L44.71 1.74Q44.59 2.06 44.35 2.56L44.35 2.56L44.35 2.56Q44.13 3.00 44.04 3.23L44.04 3.23L44.04 3.23Q43.78 4.06 43.48 5.53L43.48 5.53L43.48 5.53Q43.18 7 42.98 8.37L42.98 8.37L42.98 8.37Q43.43 8.15 43.68 7.99L43.68 7.99L43.68 7.99Q43.93 7.83 44.27 7.55L44.27 7.55L44.27 7.55Q44.88 7.76 45.18 8.13L45.18 8.13L45.18 8.13Q45.49 8.50 45.49 8.97L45.49 8.97L45.49 8.97Q45.49 9.31 45.01 9.67L45.01 9.67L45.01 9.67Q44.53 10.02 43.88 10.26L43.88 10.26L43.88 10.26Q43.22 10.50 42.76 10.50L42.76 10.50ZM52.63 8.44L52.63 8.44Q53.48 8.02 54.07 7.55L54.07 7.55L54.07 7.55Q54.68 7.76 54.98 8.13L54.98 8.13L54.98 8.13Q55.29 8.50 55.29 8.97L55.29 8.97L55.29 8.97Q55.29 9.31 54.81 9.67L54.81 9.67L54.81 9.67Q54.33 10.02 53.68 10.26L53.68 10.26L53.68 10.26Q53.02 10.50 52.56 10.50L52.56 10.50L52.56 10.50Q52.23 10.50 51.82 10.26L51.82 10.26L51.82 10.26Q51.41 10.02 51.11 9.70L51.11 9.70L51.11 9.70Q50.81 9.38 50.81 9.20L50.81 9.20L50.81 9.20Q50.81 9.06 50.92 8.82L50.92 8.82L50.92 8.82Q51.04 8.58 51.18 8.33L51.18 8.33L51.18 8.33Q51.32 8.08 51.37 7.99L51.37 7.99L51.02 7.80L51.02 7.80Q50.27 9.02 49.59 9.76L49.59 9.76L49.59 9.76Q48.92 10.50 48.26 10.50L48.26 10.50L48.26 10.50Q47.81 10.50 47.31 10.11L47.31 10.11L47.31 10.11Q46.82 9.72 46.47 9.16L46.47 9.16L46.47 9.16Q46.13 8.60 46.13 8.16L46.13 8.16L46.13 8.16Q46.13 6.92 46.65 5.61L46.65 5.61L46.65 5.61Q47.17 4.31 48.10 3.46L48.10 3.46L48.10 3.46Q49.03 2.60 50.20 2.60L50.20 2.60L50.20 2.60Q50.62 2.60 51.06 2.98L51.06 2.98L51.06 2.98Q51.49 3.36 51.62 3.75L51.62 3.75L51.62 3.75Q51.69 3.44 51.82 3.21L51.82 3.21L51.82 3.21Q51.95 2.98 52.11 2.98L52.11 2.98L52.11 2.98Q52.47 2.98 52.91 3.24L52.91 3.24L52.91 3.24Q53.35 3.50 53.66 3.84L53.66 3.84L53.66 3.84Q53.97 4.19 53.97 4.38L53.97 4.38L53.97 4.38Q53.96 4.65 53.75 5.26L53.75 5.26L53.75 5.26Q53.55 5.88 53.10 7.14L53.10 7.14L53.10 7.14Q52.84 7.83 52.63 8.44L52.63 8.44ZM48.33 8.55L48.33 8.55Q49.46 7.85 50.30 6.82L50.30 6.82L50.30 6.82Q51.14 5.80 51.45 4.55L51.45 4.55L51.45 4.55Q51.07 4.38 50.74 4.38L50.74 4.38L50.74 4.38Q50.08 4.38 49.56 4.97L49.56 4.97L49.56 4.97Q49.04 5.56 48.73 6.51L48.73 6.51L48.73 6.51Q48.43 7.46 48.33 8.55L48.33 8.55ZM63.31 7.55L63.31 7.55Q63.92 7.76 64.22 8.13L64.22 8.13L64.22 8.13Q64.53 8.50 64.53 8.97L64.53 8.97L64.53 8.97Q64.53 9.31 64.05 9.67L64.05 9.67L64.05 9.67Q63.57 10.02 62.92 10.26L62.92 10.26L62.92 10.26Q62.26 10.50 61.80 10.50L61.80 10.50L61.80 10.50Q61.47 10.50 61.05 10.25L61.05 10.25L61.05 10.25Q60.63 10.00 60.33 9.67L60.33 9.67L60.33 9.67Q60.03 9.34 60.03 9.16L60.03 9.16L60.03 9.16Q60.03 9.02 60.34 8.06L60.34 8.06L60.34 8.06Q60.89 6.40 60.89 5.96L60.89 5.96L60.89 5.96Q60.89 5.80 60.80 5.80L60.80 5.80L60.80 5.80Q60.24 5.80 58.72 7.76L58.72 7.76L58.72 7.76Q58.66 7.98 58.60 8.32L58.60 8.32L58.60 8.32Q58.53 8.65 58.51 8.79L58.51 8.79L58.51 8.79Q58.35 9.62 58.22 10.06L58.22 10.06L58.22 10.06Q58.09 10.50 57.88 10.50L57.88 10.50L57.88 10.50Q57.51 10.50 57.06 10.26L57.06 10.26L57.06 10.26Q56.60 10.01 56.27 9.68L56.27 9.68L56.27 9.68Q55.94 9.35 55.94 9.13L55.94 9.13L55.94 9.13Q55.94 8.88 56.13 8.39L56.13 8.39L56.13 8.39Q56.31 7.90 56.67 7.04L56.67 7.04L56.67 7.04Q56.95 6.38 57.09 6.01L57.09 6.01L57.09 6.01Q57.23 5.64 57.23 5.49L57.23 5.49L57.23 5.49Q57.23 5.38 57.10 5.24L57.10 5.24L57.10 5.24Q56.97 5.11 56.70 4.91L56.70 4.91L56.70 4.91Q56.39 4.68 56.24 4.54L56.24 4.54L56.24 4.54Q56.10 4.40 56.10 4.24L56.10 4.24L56.10 4.24Q56.10 3.95 56.37 3.56L56.37 3.56L56.37 3.56Q56.64 3.16 57.01 2.88L57.01 2.88L57.01 2.88Q57.39 2.60 57.65 2.60L57.65 2.60L57.65 2.60Q57.95 2.60 58.33 2.87L58.33 2.87L58.33 2.87Q58.72 3.14 59.00 3.48L59.00 3.48L59.00 3.48Q59.29 3.82 59.29 4.00L59.29 4.00L59.29 4.00Q59.29 4.34 59.21 4.83L59.21 4.83L59.21 4.83Q59.14 5.32 59.01 5.80L59.01 5.80L59.01 5.80Q60.03 4.45 60.70 3.72L60.70 3.72L60.70 3.72Q61.38 2.98 61.75 2.98L61.75 2.98L61.75 2.98Q62.02 2.98 62.40 3.25L62.40 3.25L62.40 3.25Q62.78 3.51 63.05 3.86L63.05 3.86L63.05 3.86Q63.32 4.20 63.32 4.38L63.32 4.38L63.32 4.38Q63.31 4.62 63.13 5.19L63.13 5.19L63.13 5.19Q62.94 5.77 62.61 6.72L62.61 6.72L62.61 6.72Q62.16 7.95 62.03 8.39L62.03 8.39L62.03 8.39Q62.47 8.16 62.71 8.00L62.71 8.00L62.71 8.00Q62.96 7.84 63.31 7.55L63.31 7.55ZM72.55 7.55L72.55 7.55Q73.16 7.76 73.46 8.13L73.46 8.13L73.46 8.13Q73.77 8.50 73.77 8.97L73.77 8.97L73.77 8.97Q73.77 9.31 73.29 9.67L73.29 9.67L73.29 9.67Q72.81 10.02 72.16 10.26L72.16 10.26L72.16 10.26Q71.50 10.50 71.04 10.50L71.04 10.50L71.04 10.50Q70.71 10.50 70.29 10.25L70.29 10.25L70.29 10.25Q69.87 10.00 69.57 9.67L69.57 9.67L69.57 9.67Q69.27 9.34 69.27 9.16L69.27 9.16L69.27 9.16Q69.27 9.02 69.58 8.06L69.58 8.06L69.58 8.06Q70.13 6.40 70.13 5.96L70.13 5.96L70.13 5.96Q70.13 5.80 70.04 5.80L70.04 5.80L70.04 5.80Q69.48 5.80 67.96 7.76L67.96 7.76L67.96 7.76Q67.90 7.98 67.84 8.32L67.84 8.32L67.84 8.32Q67.77 8.65 67.75 8.79L67.75 8.79L67.75 8.79Q67.59 9.62 67.46 10.06L67.46 10.06L67.46 10.06Q67.33 10.50 67.12 10.50L67.12 10.50L67.12 10.50Q66.75 10.50 66.30 10.26L66.30 10.26L66.30 10.26Q65.84 10.01 65.51 9.68L65.51 9.68L65.51 9.68Q65.18 9.35 65.18 9.13L65.18 9.13L65.18 9.13Q65.18 8.88 65.37 8.39L65.37 8.39L65.37 8.39Q65.55 7.90 65.91 7.04L65.91 7.04L65.91 7.04Q66.19 6.38 66.33 6.01L66.33 6.01L66.33 6.01Q66.47 5.64 66.47 5.49L66.47 5.49L66.47 5.49Q66.47 5.38 66.34 5.24L66.34 5.24L66.34 5.24Q66.21 5.11 65.94 4.91L65.94 4.91L65.94 4.91Q65.63 4.68 65.48 4.54L65.48 4.54L65.48 4.54Q65.34 4.40 65.34 4.24L65.34 4.24L65.34 4.24Q65.34 3.95 65.61 3.56L65.61 3.56L65.61 3.56Q65.88 3.16 66.25 2.88L66.25 2.88L66.25 2.88Q66.63 2.60 66.89 2.60L66.89 2.60L66.89 2.60Q67.19 2.60 67.57 2.87L67.57 2.87L67.57 2.87Q67.96 3.14 68.24 3.48L68.24 3.48L68.24 3.48Q68.53 3.82 68.53 4.00L68.53 4.00L68.53 4.00Q68.53 4.34 68.45 4.83L68.45 4.83L68.45 4.83Q68.38 5.32 68.25 5.80L68.25 5.80L68.25 5.80Q69.27 4.45 69.94 3.72L69.94 3.72L69.94 3.72Q70.62 2.98 70.99 2.98L70.99 2.98L70.99 2.98Q71.26 2.98 71.64 3.25L71.64 3.25L71.64 3.25Q72.02 3.51 72.29 3.86L72.29 3.86L72.29 3.86Q72.56 4.20 72.56 4.38L72.56 4.38L72.56 4.38Q72.55 4.62 72.37 5.19L72.37 5.19L72.37 5.19Q72.18 5.77 71.85 6.72L71.85 6.72L71.85 6.72Q71.40 7.95 71.27 8.39L71.27 8.39L71.27 8.39Q71.71 8.16 71.95 8.00L71.95 8.00L71.95 8.00Q72.20 7.84 72.55 7.55L72.55 7.55ZM77.48 10.50L77.48 10.50Q76.80 10.50 76.08 10.06L76.08 10.06L76.08 10.06Q75.35 9.62 74.87 8.97L74.87 8.97L74.87 8.97Q74.40 8.33 74.40 7.76L74.40 7.76L74.40 7.76Q74.40 6.73 74.88 5.52L74.88 5.52L74.88 5.52Q75.36 4.30 76.22 3.45L76.22 3.45L76.22 3.45Q77.07 2.60 78.15 2.60L78.15 2.60L78.15 2.60Q78.92 2.60 79.54 2.94L79.54 2.94L79.54 2.94Q80.16 3.28 80.51 3.78L80.51 3.78L80.51 3.78Q80.86 4.28 80.86 4.76L80.86 4.76L80.86 4.76Q80.86 5.35 80.33 5.92L80.33 5.92L80.33 5.92Q79.80 6.48 78.85 6.91L78.85 6.91L78.85 6.91Q77.90 7.34 76.68 7.52L76.68 7.52L76.68 7.52Q76.66 7.69 76.66 8.02L76.66 8.02L76.66 8.02Q76.66 8.44 76.69 8.65L76.69 8.65L76.69 8.65Q77.39 8.58 78.08 8.27L78.08 8.27L78.08 8.27Q78.76 7.97 79.58 7.41L79.58 7.41L79.58 7.41Q80.12 7.57 80.40 7.94L80.40 7.94L80.40 7.94Q80.68 8.30 80.68 8.81L80.68 8.81L80.68 8.81Q80.68 9.23 80.17 9.63L80.17 9.63L80.17 9.63Q79.66 10.02 78.90 10.26L78.90 10.26L78.90 10.26Q78.15 10.50 77.48 10.50L77.48 10.50ZM76.89 6.47L76.89 6.47Q77.74 6.16 78.32 5.68L78.32 5.68L78.32 5.68Q78.89 5.21 78.89 4.87L78.89 4.87L78.89 4.87Q78.89 4.48 78.34 4.34L78.34 4.34L78.34 4.34Q77.81 4.73 77.44 5.28L77.44 5.28L77.44 5.28Q77.07 5.82 76.89 6.47L76.89 6.47ZM83.99 10.50L83.99 10.50Q83.61 10.50 83.16 10.26L83.16 10.26L83.16 10.26Q82.71 10.01 82.39 9.68L82.39 9.68L82.39 9.68Q82.07 9.35 82.07 9.13L82.07 9.13L82.07 9.13Q82.07 8.86 82.18 8.44L82.18 8.44L82.18 8.44Q82.29 8.01 82.52 7.32L82.52 7.32L82.52 7.32Q82.74 6.61 82.85 6.18L82.85 6.18L82.85 6.18Q82.96 5.75 82.96 5.49L82.96 5.49L82.96 5.49Q82.96 5.38 82.84 5.25L82.84 5.25L82.84 5.25Q82.71 5.12 82.45 4.91L82.45 4.91L82.45 4.91Q82.14 4.66 82.00 4.52L82.00 4.52L82.00 4.52Q81.86 4.38 81.86 4.24L81.86 4.24L81.86 4.24Q81.86 3.95 82.14 3.56L82.14 3.56L82.14 3.56Q82.42 3.16 82.80 2.88L82.80 2.88L82.80 2.88Q83.17 2.60 83.44 2.60L83.44 2.60L83.44 2.60Q83.73 2.60 84.11 2.87L84.11 2.87L84.11 2.87Q84.49 3.14 84.77 3.48L84.77 3.48L84.77 3.48Q85.05 3.82 85.05 4.00L85.05 4.00L85.05 4.00Q85.05 4.54 84.84 5.40L84.84 5.40L85.01 5.49L85.01 5.49Q85.33 4.97 85.71 4.25L85.71 4.25L85.71 4.25Q86.10 3.53 86.18 3.36L86.18 3.36L86.45 2.86L86.45 2.86Q87.42 2.83 87.89 3.21L87.89 3.21L87.89 3.21Q88.37 3.58 88.37 4.21L88.37 4.21L88.37 4.21Q88.37 4.83 87.96 5.45L87.96 5.45L87.96 5.45Q86.95 5.78 86.25 6.11L86.25 6.11L86.25 6.11Q85.54 6.44 84.83 6.89L84.83 6.89L84.83 6.89Q84.78 8.44 84.58 9.47L84.58 9.47L84.58 9.47Q84.38 10.50 83.99 10.50L83.99 10.50Z"></path></g><!----><g data-v-423bf9ae="" id="245565c3-cd89-44d8-bce0-5cc1cfbd87f5" transform="matrix(1.160354495048523,0,0,1.160354495048523,-5.560693740844727,-12.798974990844727)" stroke="none" fill="black"><path d="M45.537 34.116a6.046 6.046 0 0 1-6.041-6.039c0-3.427 2.625-4.847 4.938-6.098 2.221-1.197 4.138-2.234 4.138-4.72a4.838 4.838 0 0 0-4.831-4.833.604.604 0 0 1 0-1.207c3.329 0 6.04 2.71 6.04 6.04 0 3.206-2.536 4.575-4.771 5.784-2.213 1.197-4.305 2.326-4.305 5.033a4.836 4.836 0 0 0 4.832 4.83.605.605 0 0 1 0 1.21zM56.841 34.06a4.683 4.683 0 0 1-4.679-4.678c0-2.657 2.009-3.742 3.781-4.701 1.62-.875 3.021-1.63 3.021-3.404a3.474 3.474 0 0 0-3.47-3.47.604.604 0 0 1 0-1.207 4.682 4.682 0 0 1 4.677 4.677c0 2.494-1.939 3.544-3.652 4.469-1.689.912-3.147 1.7-3.147 3.637a3.473 3.473 0 0 0 3.47 3.468.605.605 0 0 1-.001 1.209z"></path><path d="M87.673 43.181c.155-.04.32-.02.461.061a3.15 3.15 0 0 0 4.303-1.128 3.144 3.144 0 1 0-5.432-3.173.607.607 0 0 1-.828.219.609.609 0 0 1-.219-.826 3.147 3.147 0 0 0-3.516-4.627 3.147 3.147 0 0 0-.785 5.758.603.603 0 0 1 .211.836l-3.189 5.25.062.722 3.227-1.325a.901.901 0 0 1 1.242.725l.439 3.507.518-.212 3.139-5.502a.613.613 0 0 1 .367-.285z"></path><path d="M81.864 56.13l3.271-5.603-1.893.775A.901.901 0 0 1 82 50.578l-.438-3.507-3.271 1.341a.903.903 0 0 1-1.246-.758l-.15-1.729-1.289 2.209c-1.539 2.638-4.456 4.528-8.002 5.187-3.385.629-7.029.072-10.487-1.537a13.8 13.8 0 0 1 1.207 3.079.907.907 0 0 1-1.756.449c-1.548-6.068-7.823-10.107-13.981-9.003-6.248 1.116-10.729 7.147-9.986 13.442l.006.033h46.777a32.186 32.186 0 0 0 2.48-3.654zm-42.456-2.84a.825.825 0 1 1-1.153-1.179.825.825 0 0 1 1.153 1.179zm11.504-.512a.605.605 0 0 1-.854-.009c-1.371-1.407-3.066-2.322-4.772-2.578-1.647-.246-3.103.155-4.104 1.131a.605.605 0 0 1-.854-.009.605.605 0 0 1 .012-.855c1.275-1.244 3.095-1.764 5.125-1.461 1.967.293 3.903 1.332 5.459 2.929a.604.604 0 0 1-.012.852z"></path><path d="M45.464 48.999c-2.03-.304-3.85.215-5.125 1.461a.603.603 0 1 0 .842.863c1.001-.976 2.456-1.377 4.104-1.131 1.706.256 3.401 1.171 4.772 2.578a.606.606 0 0 0 .854.009.605.605 0 0 0 .012-.853c-1.555-1.595-3.494-2.634-5.459-2.927zM38.257 52.109a.829.829 0 0 0-.016 1.168.825.825 0 0 0 1.182-1.149.826.826 0 0 0-1.166-.019zM29.591 76.066a.9.9 0 1 0 0 1.801.9.9 0 1 0 0-1.801zM24.313 58.296c-.06 0-.12-.01-.181-.031-3.417-1.071-6.377-3.348-9.241-5.555a102.949 102.949 0 0 0-2.373-1.791.605.605 0 0 1 .71-.979c.798.578 1.612 1.205 2.401 1.812 2.779 2.14 5.654 4.354 8.864 5.361a.605.605 0 0 1-.18 1.183zM22.658 54.667c-.025 0-.05 0-.076-.004a.606.606 0 0 1-.523-.675c.188-1.528-.172-2.995-.991-4.02a.603.603 0 0 1 .096-.849.602.602 0 0 1 .849.094c1.037 1.297 1.479 3.046 1.246 4.922a.612.612 0 0 1-.601.532zM27.687 54.947a.602.602 0 0 1-.52-.911c.467-.787.627-1.787.48-2.973a.602.602 0 0 1 .523-.675.605.605 0 0 1 .674.522c.183 1.459-.032 2.717-.639 3.739a.597.597 0 0 1-.518.298zM15.486 58.048a7.217 7.217 0 0 1-3.158-.737.604.604 0 1 1 .533-1.086c1.456.716 3.152.815 4.543.261a.603.603 0 1 1 .446 1.122 6.424 6.424 0 0 1-2.364.44z"></path><path d="M93.636 59.786H81.645a34.381 34.381 0 0 0 1.784-2.742l4.617-7.914a.906.906 0 1 0-1.127-1.295l-.938.385 2.092-3.663c1.977.81 4.301.06 5.406-1.835a4.361 4.361 0 0 0-1.566-5.956 4.357 4.357 0 0 0-4.322-.03 4.348 4.348 0 0 0-8.106-2.178 4.357 4.357 0 0 0 1.058 5.604l-2.037 3.354-.052-.588a.905.905 0 0 0-1.685-.379l-2.728 4.675c-1.273 2.185-3.74 3.756-6.767 4.319-4.431.822-9.402-.655-13.647-4.058a.983.983 0 0 0-.166-.104c-3.062-2.43-7.103-3.588-11.194-2.854-.699.127-1.38.308-2.039.532-.16-1.691-1.767-2.115-2.851-2.396a9.521 9.521 0 0 1-.854-.252c-.603-.228-.777-.607-1.06-1.322-.226-.572-.481-1.223-1.121-1.771-.851-.728-1.875-.858-2.78-.972-.789-.104-1.535-.197-2.15-.646-.194-.14-.395-.3-.6-.461-1.259-.988-2.983-2.35-4.851-1.037-1.479 1.035-1.899 2.771-1.257 5.163-1.256.638-1.702 1.738-1.701 2.78-1.006.032-1.948.322-2.869.613-1.164.365-2.263.712-3.412.481a27.366 27.366 0 0 1-1.126-.258c-2.377-.567-5.635-1.349-7.384 1.656-1.388 2.384-.858 5.063 1.57 7.969-1.431 1.787-1.262 3.694-.479 5.18h-.644a.906.906 0 0 0-.906.906v5.438c0 8.203 5.768 15.078 13.459 16.797a3.604 3.604 0 0 0-.772 2.229 3.628 3.628 0 0 0 3.624 3.625h56.168c2 0 3.625-1.626 3.625-3.625 0-.84-.289-1.613-.771-2.229 7.69-1.719 13.457-8.594 13.457-16.797v-5.438a.907.907 0 0 0-.907-.906zM81.87 40.3a.603.603 0 0 0-.211-.836 3.147 3.147 0 0 1 .785-5.758 3.147 3.147 0 0 1 3.517 4.627.604.604 0 0 0 1.045.607 3.146 3.146 0 0 1 5.433 3.173 3.152 3.152 0 0 1-4.304 1.128.614.614 0 0 0-.459-.061.618.618 0 0 0-.369.283l-3.14 5.502-.517.212-.439-3.507a.907.907 0 0 0-1.242-.725l-3.227 1.325-.062-.722 3.19-5.248zm-39.285 6.01c6.157-1.104 12.434 2.936 13.98 9.003a.906.906 0 1 0 1.756-.449 13.755 13.755 0 0 0-1.207-3.078c3.458 1.608 7.104 2.166 10.487 1.536 3.546-.659 6.463-2.549 8.002-5.187l1.289-2.209.149 1.729a.905.905 0 0 0 1.246.759l3.271-1.342.438 3.506c.034.28.198.526.442.672.243.142.542.16.801.053l1.892-.775-3.27 5.602a32.053 32.053 0 0 1-2.482 3.656H32.603c-.002-.012-.006-.022-.006-.033-.742-6.295 3.74-12.327 9.988-13.443zm-18.953-4.032a.605.605 0 0 0 .379-.758c-.688-2.132-.478-3.552.643-4.334 1.05-.736 2.033-.083 3.408.999.218.172.431.339.635.487.867.633 1.85.758 2.712.867.843.106 1.57.199 2.146.693.41.352.593.811.783 1.297.293.741.627 1.582 1.758 2.008.308.114.647.205.977.291 1.368.355 1.968.609 1.962 1.524 0 .06.019.112.032.165a14.147 14.147 0 0 0-4.493 3.243c-1.258-2.498-3.758-2.06-5.595-1.732-.488.087-.948.169-1.356.199-.985.074-1.479-.351-2.329-1.165-.681-.648-1.451-1.383-2.682-1.736-.139-.037-.271-.061-.407-.086-.036-.661.185-1.532 1.427-1.962zM7.778 47.544c.994-1.709 2.783-1.426 5.396-.801.41.098.812.192 1.189.271 1.607.319 3.046-.134 4.313-.533 1.244-.392 2.319-.726 3.438-.409.797.225 1.345.748 1.922 1.303.882.84 1.882 1.791 3.714 1.66.502-.035 1.032-.13 1.545-.223 2.137-.379 3.135-.411 3.717.874.093.201.25.349.436.438-1.99 2.732-3.031 6.153-2.665 9.66H9.488c-.005-.006-.008-.013-.014-.019-.629-.707-1.872-2.562.148-4.498a.91.91 0 0 0 .041-1.269c-2.325-2.524-2.944-4.638-1.885-6.454zm70.453 39.422H22.063a1.813 1.813 0 0 1 0-3.624.736.736 0 0 0 .182-.019c.239.013.479.019.722.019h54.361c.242 0 .483-.006.723-.019.06.015.121.019.182.019.999 0 1.812.813 1.812 1.812a1.817 1.817 0 0 1-1.814 1.812zm14.5-20.838c0 8.492-6.911 15.401-15.403 15.401H22.966c-3.79 0-7.262-1.377-9.946-3.655h12.03a.906.906 0 0 0 0-1.813H11.21a15.39 15.39 0 0 1-2.287-3.624h9.479a.906.906 0 1 0 0-1.812H8.237A15.322 15.322 0 0 1 7.592 67h5.069a.905.905 0 1 0 0-1.811H7.565v-3.59H92.73l.001 4.529z"></path><path d="M28.875 44.593a.604.604 0 0 1-.525-.305 62.277 62.277 0 0 1-1.074-1.996 60.49 60.49 0 0 0-.919-1.713.607.607 0 0 1 .229-.824.605.605 0 0 1 .823.231c.315.563.623 1.151.935 1.744.344.651.688 1.312 1.058 1.959a.604.604 0 0 1-.228.823.598.598 0 0 1-.299.081zM31.698 45.722a.606.606 0 0 1-.319-.09.606.606 0 0 1-.194-.831c.503-.81.68-1.722.487-2.5a.604.604 0 0 1 1.171-.29c.272 1.107.049 2.326-.633 3.425a.598.598 0 0 1-.512.286z"></path></g><!----></svg>